<svg width="160" height="160" viewBox="0 0 160 160" fill="none" xmlns="http://www.w3.org/2000/svg">
<g clip-path="url(#clip0_827_63)">
<path d="M80 159.339C124.183 159.339 160 123.744 160 79.8361C160 35.9278 124.183 0.333008 80 0.333008C35.8172 0.333008 0 35.9278 0 79.8361C0 123.744 35.8172 159.339 80 159.339Z" fill="#DCFD7D"/>
<path d="M85.6336 21.3453C84.6309 21.2554 83.7891 21.0062 83.1081 20.5977C82.428 20.1799 81.934 19.5863 81.6259 18.817C81.3272 18.0484 81.2295 17.0961 81.3327 15.9599C81.4849 14.2836 82.0101 13.0772 82.9084 12.3409C83.8169 11.5962 85.0255 11.2914 86.5343 11.4267C87.359 11.5007 88.0867 11.7068 88.7173 12.045C89.3479 12.3832 89.8253 12.8485 90.1494 13.4409C90.4829 14.0342 90.6111 14.7546 90.5342 15.6021L88.4256 15.413C88.4662 14.9659 88.4068 14.5803 88.2472 14.2562C88.0971 13.933 87.8605 13.677 87.5375 13.4884C87.2247 13.2914 86.8481 13.173 86.4077 13.1336C85.8079 13.0798 85.3006 13.1516 84.8859 13.3492C84.4805 13.5476 84.1634 13.8665 83.9345 14.306C83.7159 14.7371 83.577 15.2786 83.5178 15.9305L83.4784 16.3636C83.4175 17.0342 83.4601 17.606 83.6061 18.0791C83.7529 18.543 84.0032 18.9082 84.3569 19.1746C84.7208 19.4326 85.2027 19.5884 85.8025 19.6423C86.271 19.6842 86.6859 19.6417 87.047 19.5145C87.4081 19.3872 87.6963 19.1783 87.9117 18.8878C88.127 18.5973 88.255 18.2285 88.2956 17.7814L90.3198 17.963C90.2428 18.8105 89.9916 19.4968 89.566 20.022C89.1497 20.548 88.6009 20.9213 87.9196 21.1419C87.239 21.3531 86.4771 21.421 85.6336 21.3453Z" fill="black"/>
<path d="M94.9928 22.989C94.2095 22.7868 93.579 22.4839 93.1012 22.0804C92.6258 21.6678 92.3191 21.1489 92.1811 20.524C92.0455 19.89 92.0877 19.1521 92.3077 18.3104C92.5325 17.4505 92.8571 16.7856 93.2813 16.3154C93.708 15.8363 94.2289 15.536 94.8439 15.4146C95.4613 15.2842 96.1616 15.32 96.9448 15.5223C97.7463 15.7293 98.3802 16.0379 98.8465 16.4481C99.3243 16.8517 99.6322 17.366 99.7702 17.9908C99.9105 18.6068 99.8683 19.3447 99.6435 20.2045C99.4235 21.0462 99.0989 21.7112 98.6699 22.1994C98.2433 22.6785 97.7212 22.9834 97.1038 23.1138C96.4979 23.2376 95.7942 23.1959 94.9928 22.989ZM95.3761 21.5229C95.795 21.631 96.1475 21.6399 96.4336 21.5495C96.7289 21.4616 96.9771 21.2744 97.1783 20.9882C97.3795 20.702 97.5404 20.3281 97.6611 19.8665L97.7463 19.5408C97.867 19.0791 97.9095 18.6747 97.8739 18.3273C97.8384 17.98 97.7132 17.6965 97.4984 17.4768C97.2951 17.2504 96.984 17.0831 96.5651 16.9749C96.1553 16.8691 95.8016 16.8647 95.504 16.9618C95.2178 17.0522 94.9742 17.2404 94.773 17.5266C94.5718 17.8129 94.4108 18.1867 94.2901 18.6483L94.205 18.9741C94.0843 19.4357 94.0417 19.8402 94.0773 20.1875C94.1129 20.5348 94.2335 20.8172 94.4392 21.0345C94.654 21.2543 94.9663 21.417 95.3761 21.5229Z" fill="black"/>
<path d="M100.168 24.3145L103.072 17.5244L104.566 18.1555L104.312 19.1453L104.402 19.1836C104.654 19.0257 104.923 18.9107 105.21 18.8387C105.505 18.7703 105.809 18.7515 106.123 18.7826C106.437 18.8136 106.758 18.8986 107.087 19.0376C107.538 19.2278 107.897 19.476 108.165 19.7822C108.432 20.0883 108.582 20.4563 108.613 20.8859C108.652 21.3192 108.551 21.8199 108.308 22.3879L106.364 26.9318L104.559 26.1691L106.381 21.9092C106.473 21.6941 106.524 21.5024 106.535 21.3341C106.549 21.1572 106.524 20.9995 106.461 20.861C106.41 20.7175 106.32 20.5931 106.191 20.4879C106.062 20.3827 105.907 20.2916 105.725 20.2148C105.457 20.1014 105.187 20.0635 104.915 20.1012C104.643 20.1389 104.399 20.2439 104.182 20.4164C103.965 20.5891 103.794 20.8216 103.669 21.1142L101.974 25.0772L100.168 24.3145Z" fill="black"/>
<path d="M109.835 29.0955C109.426 28.8645 109.136 28.6042 108.966 28.3147C108.796 28.0251 108.724 27.7261 108.749 27.4175C108.778 27.1008 108.879 26.7921 109.051 26.4912L111.121 22.8689L110.324 22.4186L111.07 21.1136L111.929 21.5986L113.293 19.9492L114.619 20.6975L113.573 22.5269L114.751 23.1921L114.005 24.497L112.827 23.832L110.917 27.1737C110.806 27.3688 110.765 27.5446 110.794 27.7012C110.828 27.8495 110.948 27.9814 111.152 28.0969L111.754 28.4364L111.112 29.5585C110.995 29.5355 110.865 29.4993 110.72 29.4498C110.57 29.4084 110.417 29.3543 110.261 29.2875C110.1 29.2287 109.958 29.1647 109.835 29.0955Z" fill="black"/>
<path d="M113.743 31.5727C113.545 31.4302 113.348 31.2539 113.152 31.0439C112.964 30.8395 112.813 30.6092 112.697 30.353C112.587 30.0892 112.548 29.8009 112.578 29.488C112.622 29.173 112.77 28.8413 113.024 28.4929C113.328 28.0763 113.67 27.7975 114.052 27.6564C114.433 27.5154 114.847 27.4898 115.293 27.5795C115.752 27.6672 116.239 27.8507 116.756 28.1302C117.273 28.4095 117.817 28.7549 118.389 29.1662L118.711 28.7231C118.838 28.5488 118.918 28.3754 118.951 28.2028C118.991 28.0356 118.967 27.862 118.877 27.6822C118.795 27.5076 118.628 27.33 118.377 27.149C118.125 26.968 117.898 26.8503 117.693 26.7957C117.497 26.7467 117.328 26.7467 117.188 26.7958C117.061 26.8428 116.956 26.9231 116.873 27.0368L116.774 27.1731L115.23 26.0627C115.25 26.0194 115.271 25.9825 115.293 25.9522C115.321 25.9143 115.354 25.8689 115.393 25.8158C115.647 25.4674 115.971 25.245 116.367 25.1486C116.768 25.0446 117.212 25.0642 117.7 25.2076C118.188 25.3509 118.691 25.609 119.21 25.9819C119.766 26.3822 120.179 26.7886 120.447 27.2013C120.723 27.6193 120.859 28.0398 120.853 28.4627C120.854 28.891 120.701 29.3172 120.392 29.7414L118.413 32.4568C118.314 32.5932 118.278 32.7229 118.304 32.8459C118.344 32.9667 118.413 33.0628 118.512 33.1342L118.89 33.4056L118.136 34.4395C118.033 34.4225 117.887 34.3754 117.699 34.2981C117.506 34.2284 117.295 34.1113 117.067 33.9468C116.846 33.7878 116.672 33.6111 116.547 33.4168C116.423 33.2355 116.345 33.047 116.314 32.8511C116.288 32.6477 116.313 32.4462 116.388 32.2467L116.308 32.1891C116.063 32.255 115.801 32.2799 115.522 32.264C115.251 32.2536 114.965 32.192 114.663 32.0792C114.37 31.9719 114.063 31.8031 113.743 31.5727ZM115.149 30.7664C115.363 30.9199 115.575 31.0268 115.787 31.0868C116.004 31.1393 116.209 31.1536 116.4 31.1298C116.598 31.0984 116.785 31.0252 116.961 30.91C117.146 30.8003 117.304 30.6545 117.437 30.4727L117.677 30.1433C117.25 29.8362 116.847 29.5923 116.467 29.4115C116.093 29.2233 115.758 29.126 115.46 29.1199C115.17 29.1191 114.937 29.2399 114.76 29.4823C114.661 29.6187 114.61 29.7607 114.607 29.9085C114.604 30.0563 114.647 30.2034 114.738 30.3496C114.829 30.4959 114.966 30.6348 115.149 30.7664Z" fill="black"/>
<path d="M121.064 37.567C120.494 37.0226 120.111 36.4679 119.913 35.903C119.722 35.3314 119.724 34.7428 119.918 34.1372C120.126 33.5312 120.533 32.9149 121.14 32.288C121.759 31.6477 122.363 31.2193 122.951 31.0028C123.552 30.7861 124.144 30.7614 124.726 30.9286C125.316 31.1023 125.892 31.4582 126.454 31.9961C126.821 32.3461 127.107 32.7043 127.314 33.0706C127.528 33.4435 127.655 33.8246 127.696 34.214C127.737 34.6033 127.681 34.9848 127.529 35.358C127.39 35.7311 127.144 36.0996 126.792 36.4636L125.378 35.1122C125.613 34.8696 125.768 34.635 125.843 34.4088C125.919 34.1824 125.917 33.9543 125.84 33.7243C125.769 33.5008 125.618 33.2789 125.387 33.0585C125.116 32.7993 124.837 32.6493 124.55 32.6086C124.263 32.5679 123.965 32.6266 123.655 32.7847C123.345 32.9428 123.021 33.1971 122.682 33.5476L122.457 33.7802C122.124 34.1239 121.884 34.4527 121.738 34.7664C121.597 35.0865 121.557 35.3915 121.616 35.6814C121.681 35.9645 121.856 36.2422 122.141 36.5144C122.372 36.7348 122.601 36.8758 122.828 36.9376C123.063 37.0057 123.299 36.9978 123.537 36.9138C123.775 36.8298 124.004 36.6732 124.226 36.444L125.569 37.7274C125.237 38.0712 124.882 38.3228 124.506 38.4822C124.137 38.6481 123.755 38.7183 123.362 38.693C122.976 38.674 122.588 38.5692 122.198 38.3782C121.808 38.1874 121.43 37.917 121.064 37.567Z" fill="black"/>
<path d="M125.955 42.8603C125.654 42.5011 125.475 42.1563 125.418 41.8258C125.362 41.4954 125.399 41.1901 125.532 40.91C125.672 40.6237 125.875 40.3699 126.143 40.1485L129.363 37.4816L128.776 36.7812L129.936 35.8204L130.569 36.5746L132.43 35.5078L133.406 36.6716L131.779 38.0185L132.647 39.0531L131.487 40.0139L130.619 38.9793L127.648 41.4397C127.475 41.5834 127.374 41.7337 127.346 41.8905C127.326 42.0414 127.391 42.2066 127.542 42.3862L127.984 42.9142L126.987 43.7404C126.886 43.678 126.776 43.5984 126.658 43.5015C126.533 43.4104 126.408 43.3063 126.286 43.189C126.155 43.0776 126.045 42.9681 125.955 42.8603Z" fill="black"/>
<path d="M132.101 52.0448C131.682 51.2707 131.445 50.5372 131.391 49.8443C131.341 49.1596 131.484 48.5362 131.821 47.9739C132.166 47.4072 132.711 46.9246 133.457 46.5258L138.765 43.6885L139.768 45.5414L134.51 48.3521C133.897 48.68 133.511 49.0931 133.353 49.5915C133.204 50.0854 133.292 50.633 133.618 51.2341C133.943 51.8353 134.354 52.21 134.851 52.3585C135.361 52.5106 135.922 52.4229 136.536 52.095L141.794 49.2843L142.797 51.1372L137.489 53.9746C136.743 54.3733 136.037 54.5594 135.371 54.5332C134.714 54.5026 134.109 54.2737 133.557 53.8466C133.01 53.4277 132.525 52.8272 132.101 52.0448Z" fill="black"/>
<path d="M135.889 60.6374C135.719 60.1517 135.619 59.6962 135.589 59.2708C135.559 58.8454 135.59 58.4634 135.68 58.1251C135.779 57.7835 135.936 57.4915 136.15 57.249C136.367 57.0154 136.644 56.84 136.982 56.7229C137.017 56.7106 137.053 56.6983 137.088 56.6859C137.124 56.6736 137.152 56.6688 137.173 56.6714L137.796 58.446C137.778 58.4522 137.76 58.4584 137.743 58.4645C137.725 58.4707 137.707 58.4769 137.689 58.483C137.47 58.5689 137.313 58.7026 137.217 58.8844C137.131 59.0631 137.093 59.2691 137.106 59.5025C137.121 59.7448 137.17 59.9852 137.254 60.2236C137.328 60.4355 137.417 60.6324 137.521 60.8143C137.637 61.002 137.771 61.1436 137.924 61.239C138.081 61.3433 138.243 61.3662 138.412 61.3077C138.625 61.2337 138.759 61.0884 138.812 60.8718C138.869 60.664 138.883 60.4065 138.855 60.0993C138.83 59.801 138.804 59.4731 138.778 59.1156C138.744 58.7908 138.719 58.4628 138.702 58.1319C138.694 57.7978 138.723 57.481 138.787 57.1814C138.854 56.8907 138.982 56.6286 139.169 56.3954C139.365 56.159 139.649 55.9761 140.023 55.8467C140.387 55.7205 140.73 55.6906 141.052 55.7571C141.384 55.8205 141.686 55.9582 141.96 56.1703C142.237 56.3912 142.48 56.6732 142.69 57.0163C142.913 57.3652 143.1 57.7559 143.251 58.1886C143.394 58.5946 143.483 58.9897 143.518 59.3736C143.562 59.7546 143.546 60.1067 143.47 60.4301C143.404 60.7504 143.272 61.0288 143.076 61.2651C142.889 61.4984 142.644 61.6674 142.342 61.7722C142.28 61.7937 142.222 61.8137 142.169 61.8322C142.116 61.8507 142.078 61.8586 142.058 61.8559L141.439 60.0945L141.546 60.0576C141.706 60.0021 141.822 59.9073 141.894 59.7733C141.976 59.6361 142.015 59.464 142.012 59.2571C142.012 59.0589 141.968 58.8318 141.878 58.5757C141.816 58.3992 141.745 58.2404 141.666 58.0996C141.589 57.9676 141.506 57.8578 141.415 57.7704C141.325 57.6829 141.229 57.6222 141.127 57.5881C141.038 57.5598 140.939 57.5641 140.833 57.601C140.682 57.6534 140.579 57.7583 140.525 57.9159C140.482 58.079 140.467 58.2774 140.48 58.5108C140.492 58.7444 140.507 59.0014 140.526 59.2821C140.549 59.6307 140.576 59.9927 140.608 60.3678C140.652 60.7487 140.656 61.1139 140.619 61.4634C140.582 61.8128 140.463 62.1264 140.262 62.4043C140.069 62.6791 139.751 62.8934 139.307 63.0475C138.88 63.1954 138.491 63.2362 138.139 63.1701C137.79 63.1129 137.476 62.9694 137.196 62.7396C136.916 62.5098 136.667 62.2146 136.451 61.8538C136.235 61.4931 136.048 61.0876 135.889 60.6374Z" fill="black"/>
<path d="M143.119 69.7969L144.971 69.6965L143.723 68.4105L144.609 67.7214L145.6 69.1989L146.161 67.5068L147.203 67.9291L146.355 69.5051L148.151 69.1009L148.305 70.1984L146.466 70.2969L147.715 71.5829L146.828 72.272L145.822 70.7826L145.277 72.4866L144.234 72.0643L145.082 70.4883L143.272 70.8945L143.119 69.7969Z" fill="black"/>
<path d="M138.893 84.9878C138.976 83.9907 139.22 83.1523 139.626 82.4726C140.042 81.7937 140.635 81.2983 141.407 80.9865C142.178 80.6841 143.136 80.58 144.28 80.6742C145.968 80.8131 147.186 81.3262 147.933 82.2135C148.689 83.1109 149.005 84.3097 148.88 85.8101C148.811 86.6302 148.609 87.3548 148.273 87.984C147.938 88.6132 147.473 89.091 146.879 89.4174C146.285 89.7531 145.561 89.8859 144.708 89.8157L144.882 87.7189C145.333 87.7559 145.72 87.694 146.045 87.5331C146.369 87.3815 146.625 87.1445 146.812 86.8222C147.008 86.5099 147.125 86.1348 147.161 85.6968C147.211 85.1003 147.135 84.5968 146.933 84.186C146.73 83.7846 146.407 83.4719 145.963 83.2477C145.528 83.0335 144.982 82.8995 144.326 82.8454L143.89 82.8095C143.214 82.7539 142.639 82.8004 142.164 82.949C141.699 83.0982 141.333 83.3497 141.068 83.7032C140.811 84.0667 140.657 84.5467 140.608 85.1431C140.569 85.609 140.615 86.021 140.745 86.3789C140.876 86.7369 141.088 87.0218 141.382 87.2336C141.676 87.4455 142.048 87.57 142.498 87.6071L142.33 89.62C141.477 89.5497 140.785 89.305 140.253 88.886C139.721 88.4761 139.341 87.9335 139.114 87.258C138.897 86.5833 138.823 85.8266 138.893 84.9878Z" fill="black"/>
<path d="M137.308 94.2988C137.506 93.519 137.806 92.8901 138.208 92.4123C138.62 91.9367 139.14 91.628 139.768 91.4863C140.405 91.3468 141.147 91.3832 141.996 91.5956C142.863 91.8125 143.534 92.1301 144.01 92.5482C144.496 92.9686 144.802 93.484 144.929 94.0943C145.064 94.707 145.034 95.4031 144.836 96.1829C144.634 96.9809 144.328 97.6132 143.919 98.0797C143.516 98.5575 143.001 98.8674 142.373 99.0091C141.754 99.1532 141.012 99.1167 140.145 98.8998C139.296 98.6874 138.625 98.3699 138.13 97.9471C137.645 97.5267 137.334 97.0102 137.198 96.3976C137.069 95.7964 137.106 95.0967 137.308 94.2988ZM138.786 94.6688C138.681 95.0859 138.674 95.4363 138.767 95.7199C138.858 96.0127 139.048 96.258 139.338 96.4557C139.627 96.6536 140.005 96.8107 140.47 96.9272L140.798 97.0094C141.264 97.1259 141.671 97.1652 142.02 97.1272C142.37 97.0893 142.654 96.9628 142.873 96.7477C143.1 96.544 143.266 96.2335 143.371 95.8164C143.475 95.4084 143.477 95.0568 143.377 94.7618C143.284 94.4782 143.092 94.2374 142.803 94.0396C142.513 93.8418 142.136 93.6846 141.671 93.5682L141.342 93.4859C140.877 93.3694 140.47 93.3302 140.12 93.3681C139.771 93.4061 139.488 93.528 139.271 93.734C139.051 93.9492 138.89 94.2607 138.786 94.6688Z" fill="black"/>
<path d="M136.011 99.4561L142.865 102.291L142.241 103.781L141.243 103.536L141.205 103.626C141.366 103.874 141.484 104.141 141.558 104.425C141.629 104.718 141.651 105.02 141.622 105.332C141.593 105.644 141.51 105.965 141.372 106.293C141.184 106.742 140.937 107.1 140.631 107.369C140.325 107.637 139.956 107.788 139.524 107.823C139.088 107.865 138.583 107.767 138.01 107.531L133.424 105.632L134.178 103.833L138.478 105.612C138.695 105.702 138.888 105.752 139.057 105.761C139.235 105.774 139.394 105.748 139.533 105.684C139.677 105.632 139.801 105.542 139.906 105.413C140.011 105.284 140.102 105.129 140.178 104.948C140.29 104.68 140.326 104.411 140.286 104.142C140.246 103.872 140.139 103.63 139.963 103.415C139.788 103.202 139.553 103.033 139.257 102.91L135.257 101.256L136.011 99.4561Z" fill="black"/>
<path d="M131.272 109.096C131.501 108.688 131.761 108.399 132.051 108.228C132.341 108.057 132.642 107.982 132.952 108.005C133.271 108.032 133.583 108.129 133.887 108.298L137.547 110.329L137.994 109.532L139.313 110.265L138.831 111.122L140.501 112.466L139.757 113.789L137.909 112.763L137.248 113.939L135.93 113.207L136.59 112.031L133.214 110.158C133.017 110.048 132.839 110.008 132.682 110.039C132.533 110.074 132.401 110.194 132.286 110.398L131.949 110.998L130.816 110.369C130.838 110.253 130.873 110.123 130.922 109.979C130.962 109.83 131.016 109.678 131.082 109.522C131.14 109.361 131.203 109.218 131.272 109.096Z" fill="black"/>
<path d="M128.809 112.996C128.951 112.799 129.127 112.602 129.337 112.406C129.542 112.217 129.772 112.065 130.029 111.949C130.294 111.838 130.584 111.796 130.899 111.824C131.216 111.865 131.551 112.01 131.903 112.26C132.325 112.558 132.608 112.897 132.752 113.275C132.897 113.653 132.926 114.064 132.839 114.507C132.754 114.964 132.573 115.45 132.296 115.966C132.018 116.482 131.675 117.024 131.265 117.596L131.713 117.913C131.89 118.038 132.065 118.116 132.239 118.147C132.407 118.186 132.582 118.16 132.762 118.071C132.937 117.987 133.115 117.82 133.295 117.569C133.475 117.317 133.592 117.091 133.645 116.887C133.693 116.691 133.692 116.524 133.641 116.385C133.593 116.259 133.512 116.156 133.397 116.074L133.259 115.976L134.365 114.434C134.409 114.453 134.446 114.474 134.476 114.496C134.515 114.523 134.561 114.556 134.614 114.593C134.967 114.844 135.193 115.165 135.293 115.556C135.4 115.955 135.384 116.396 135.243 116.882C135.103 117.368 134.847 117.87 134.475 118.388C134.077 118.944 133.671 119.357 133.257 119.627C132.839 119.904 132.417 120.042 131.991 120.039C131.56 120.043 131.13 119.894 130.701 119.59L127.954 117.644C127.816 117.547 127.686 117.511 127.562 117.539C127.441 117.579 127.344 117.648 127.273 117.748L127.003 118.124L125.957 117.384C125.973 117.281 126.02 117.136 126.096 116.949C126.165 116.756 126.281 116.545 126.445 116.317C126.603 116.096 126.78 115.922 126.975 115.796C127.156 115.673 127.345 115.594 127.542 115.561C127.746 115.534 127.949 115.556 128.151 115.631L128.208 115.55C128.14 115.307 128.113 115.047 128.127 114.769C128.135 114.5 128.195 114.215 128.307 113.915C128.412 113.623 128.58 113.316 128.809 112.996ZM129.631 114.388C129.478 114.601 129.372 114.813 129.313 115.025C129.262 115.24 129.249 115.444 129.275 115.634C129.308 115.83 129.383 116.016 129.5 116.19C129.612 116.372 129.76 116.529 129.943 116.66L130.277 116.895C130.583 116.469 130.825 116.066 131.004 115.688C131.191 115.315 131.286 114.981 131.29 114.685C131.289 114.397 131.166 114.166 130.92 113.992C130.782 113.895 130.639 113.845 130.49 113.843C130.342 113.841 130.194 113.886 130.047 113.977C129.901 114.069 129.762 114.206 129.631 114.388Z" fill="black"/>
<path d="M122.831 120.318C123.374 119.747 123.93 119.362 124.497 119.162C125.07 118.968 125.663 118.965 126.274 119.154C126.885 119.356 127.508 119.756 128.143 120.355C128.792 120.965 129.227 121.562 129.45 122.145C129.672 122.741 129.701 123.329 129.537 123.908C129.367 124.496 129.013 125.07 128.476 125.634C128.126 126 127.768 126.288 127.401 126.496C127.027 126.711 126.645 126.84 126.253 126.884C125.862 126.928 125.477 126.875 125.101 126.726C124.724 126.591 124.352 126.349 123.983 126.002L125.332 124.586C125.578 124.818 125.815 124.971 126.044 125.044C126.272 125.117 126.501 125.114 126.732 125.035C126.957 124.963 127.179 124.812 127.399 124.581C127.658 124.31 127.807 124.031 127.845 123.745C127.884 123.46 127.823 123.164 127.662 122.858C127.5 122.551 127.242 122.231 126.887 121.896L126.651 121.674C126.303 121.346 125.97 121.11 125.654 120.967C125.33 120.83 125.023 120.792 124.732 120.853C124.448 120.919 124.17 121.095 123.898 121.38C123.678 121.612 123.537 121.84 123.477 122.067C123.41 122.3 123.42 122.534 123.506 122.771C123.592 123.006 123.752 123.234 123.984 123.452L122.702 124.796C122.354 124.468 122.098 124.117 121.935 123.744C121.765 123.379 121.692 123 121.715 122.61C121.731 122.226 121.834 121.839 122.023 121.451C122.212 121.062 122.481 120.685 122.831 120.318Z" fill="black"/>
<path d="M117.54 125.216C117.899 124.914 118.245 124.734 118.577 124.675C118.909 124.616 119.217 124.652 119.5 124.782C119.789 124.918 120.046 125.119 120.27 125.383L122.977 128.563L123.678 127.975L124.653 129.121L123.899 129.755L124.986 131.597L123.822 132.575L122.455 130.968L121.42 131.838L120.445 130.692L121.48 129.823L118.982 126.889C118.836 126.717 118.684 126.619 118.526 126.592C118.374 126.573 118.209 126.638 118.029 126.79L117.501 127.234L116.662 126.248C116.724 126.147 116.804 126.037 116.9 125.919C116.991 125.795 117.095 125.671 117.212 125.547C117.323 125.417 117.433 125.307 117.54 125.216Z" fill="black"/>
<path d="M108.343 131.391C109.119 130.969 109.855 130.728 110.552 130.669C111.241 130.614 111.869 130.752 112.437 131.082C113.01 131.421 113.5 131.96 113.907 132.698L116.801 137.951L114.944 138.962L112.077 133.758C111.742 133.15 111.324 132.771 110.821 132.618C110.323 132.473 109.773 132.564 109.17 132.892C108.568 133.22 108.194 133.631 108.048 134.126C107.899 134.634 107.991 135.192 108.325 135.799L111.193 141.003L109.335 142.013L106.441 136.76C106.035 136.021 105.842 135.322 105.863 134.66C105.889 134.006 106.115 133.403 106.541 132.851C106.958 132.305 107.559 131.818 108.343 131.391Z" fill="black"/>
<path d="M99.7244 135.222C100.211 135.049 100.669 134.946 101.097 134.913C101.525 134.88 101.909 134.908 102.25 134.995C102.595 135.092 102.89 135.245 103.135 135.455C103.372 135.669 103.551 135.943 103.671 136.278C103.684 136.313 103.696 136.349 103.709 136.384C103.722 136.419 103.727 136.447 103.724 136.468L101.943 137.1C101.937 137.082 101.93 137.065 101.924 137.047C101.918 137.03 101.911 137.013 101.905 136.995C101.817 136.777 101.681 136.622 101.498 136.529C101.317 136.443 101.11 136.408 100.875 136.422C100.631 136.439 100.39 136.49 100.15 136.574C99.9381 136.65 99.7406 136.74 99.5584 136.845C99.3704 136.961 99.2289 137.096 99.134 137.248C99.0302 137.404 99.0084 137.566 99.0685 137.733C99.1445 137.945 99.2917 138.076 99.51 138.128C99.7195 138.182 99.9787 138.195 100.287 138.164C100.587 138.138 100.917 138.11 101.277 138.082C101.603 138.045 101.933 138.017 102.266 137.998C102.602 137.989 102.921 138.014 103.223 138.076C103.516 138.141 103.781 138.265 104.017 138.45C104.256 138.642 104.442 138.924 104.575 139.293C104.705 139.655 104.737 139.996 104.673 140.317C104.612 140.646 104.475 140.948 104.264 141.221C104.044 141.499 103.762 141.742 103.418 141.954C103.069 142.177 102.677 142.366 102.243 142.52C101.835 142.664 101.438 142.756 101.052 142.793C100.669 142.84 100.315 142.827 99.9889 142.754C99.6661 142.69 99.3851 142.561 99.1458 142.368C98.9097 142.184 98.7378 141.942 98.6302 141.643C98.6081 141.581 98.5875 141.523 98.5685 141.471C98.5495 141.418 98.5413 141.381 98.5438 141.36L100.311 140.733L100.349 140.839C100.406 140.997 100.502 141.112 100.638 141.183C100.777 141.263 100.95 141.301 101.158 141.296C101.358 141.295 101.586 141.248 101.843 141.158C102.02 141.094 102.179 141.024 102.32 140.943C102.453 140.867 102.562 140.783 102.65 140.693C102.737 140.601 102.797 140.506 102.831 140.404C102.859 140.315 102.854 140.218 102.816 140.112C102.762 139.962 102.656 139.861 102.497 139.808C102.332 139.767 102.133 139.753 101.898 139.767C101.663 139.781 101.404 139.799 101.122 139.819C100.771 139.845 100.407 139.875 100.03 139.91C99.6475 139.956 99.2801 139.962 98.9282 139.928C98.5763 139.895 98.2598 139.778 97.9787 139.581C97.7009 139.391 97.4828 139.076 97.3245 138.635C97.1726 138.213 97.1285 137.827 97.1924 137.476C97.2475 137.129 97.3895 136.815 97.6186 136.536C97.8477 136.255 98.143 136.007 98.5044 135.789C98.8658 135.572 99.2725 135.382 99.7244 135.222Z" fill="black"/>
<path d="M90.5597 142.474L90.6744 144.314L91.9592 143.064L92.6591 143.94L91.1797 144.935L92.8864 145.481L92.4691 146.519L90.8771 145.689L91.297 147.47L90.1937 147.63L90.0811 145.804L88.7963 147.055L88.0964 146.178L89.5877 145.168L87.8691 144.638L88.2864 143.599L89.8784 144.43L89.4565 142.635L90.5597 142.474Z" fill="black"/>
<path d="M75.2484 138.384C76.2524 138.459 77.0978 138.696 77.7847 139.094C78.4709 139.502 78.9737 140.088 79.2931 140.853C79.6031 141.617 79.7149 142.568 79.6285 143.705C79.5011 145.384 78.9937 146.598 78.1065 147.348C77.2091 148.105 76.0051 148.428 74.4945 148.314C73.6688 148.252 72.9381 148.057 72.3026 147.728C71.667 147.399 71.1828 146.94 70.85 146.353C70.5078 145.764 70.3689 145.046 70.4333 144.197L72.5444 144.356C72.5104 144.803 72.5756 145.188 72.7399 145.51C72.8948 145.831 73.1351 146.083 73.4609 146.267C73.7765 146.46 74.1549 146.572 74.5959 146.605C75.1964 146.651 75.7025 146.571 76.1143 146.368C76.5167 146.164 76.829 145.84 77.0514 145.397C77.2636 144.963 77.3946 144.42 77.4441 143.767L77.477 143.334C77.528 142.662 77.477 142.09 77.324 141.619C77.1704 141.158 76.9147 140.796 76.5571 140.535C76.1894 140.283 75.7053 140.134 75.1048 140.089C74.6356 140.054 74.2215 140.103 73.8623 140.235C73.5031 140.367 73.218 140.581 73.007 140.874C72.7959 141.167 72.6734 141.538 72.6394 141.986L70.6128 141.834C70.6772 140.985 70.9183 140.296 71.3361 139.764C71.7445 139.232 72.2877 138.851 72.9657 138.62C73.6431 138.399 74.404 138.32 75.2484 138.384Z" fill="black"/>
<path d="M65.8689 136.879C66.655 137.07 67.29 137.364 67.7739 137.759C68.2554 138.166 68.5699 138.68 68.7173 139.303C68.8624 139.935 68.8313 140.673 68.6239 141.518C68.4121 142.38 68.0976 143.05 67.6804 143.526C67.261 144.012 66.7447 144.32 66.1316 144.45C65.5162 144.591 64.8154 144.565 64.0292 144.374C63.2248 144.179 62.5863 143.88 62.1139 143.477C61.6301 143.08 61.3145 142.57 61.1671 141.948C61.0175 141.334 61.0486 140.596 61.2605 139.733C61.4678 138.887 61.7824 138.218 62.204 137.724C62.6234 137.238 63.1408 136.926 63.7562 136.785C64.3602 136.653 65.0644 136.684 65.8689 136.879ZM65.5076 138.351C65.0871 138.249 64.7345 138.245 64.4498 138.34C64.1559 138.432 63.9105 138.623 63.7136 138.912C63.5168 139.201 63.3615 139.578 63.2477 140.041L63.1675 140.368C63.0537 140.831 63.0173 141.237 63.0581 141.583C63.0989 141.93 63.2283 142.211 63.4463 142.428C63.653 142.652 63.9666 142.814 64.3871 142.916C64.7985 143.015 65.1522 143.014 65.4483 142.913C65.733 142.819 65.9739 142.627 66.1707 142.338C66.3676 142.049 66.5229 141.673 66.6367 141.209L66.7169 140.882C66.8306 140.419 66.8671 140.013 66.8263 139.667C66.7855 139.321 66.6607 139.039 66.4518 138.826C66.2337 138.609 65.919 138.451 65.5076 138.351Z" fill="black"/>
<path d="M60.6639 135.627L57.8607 142.458L56.3577 141.849L56.5976 140.856L56.5061 140.818C56.2569 140.98 55.9897 141.099 55.7043 141.175C55.4103 141.248 55.1061 141.272 54.7918 141.245C54.4774 141.219 54.1547 141.138 53.8236 141.004C53.3705 140.82 53.0078 140.578 52.7355 140.275C52.4632 139.973 52.3084 139.607 52.2711 139.178C52.2251 138.745 52.3194 138.243 52.5539 137.672L54.4298 133.1L56.2465 133.836L54.4878 138.122C54.3989 138.339 54.3505 138.532 54.3423 138.7C54.3307 138.876 54.3576 139.034 54.423 139.172C54.4763 139.315 54.568 139.437 54.6984 139.54C54.8287 139.644 54.9854 139.733 55.1684 139.807C55.4385 139.916 55.7091 139.95 55.9802 139.909C56.2513 139.867 56.4941 139.758 56.7084 139.583C56.9228 139.407 57.0904 139.172 57.2112 138.877L58.8473 134.89L60.6639 135.627Z" fill="black"/>
<path d="M50.9319 130.99C51.3443 131.215 51.6377 131.471 51.8119 131.757C51.9862 132.045 52.0632 132.343 52.0429 132.652C52.018 132.969 51.9219 133.279 51.7544 133.582L49.7379 137.234L50.5422 137.673L49.8157 138.989L48.9495 138.517L47.6094 140.186L46.273 139.457L47.2914 137.613L46.1035 136.965L46.83 135.649L48.0179 136.297L49.8783 132.927C49.9869 132.73 50.0253 132.554 49.9934 132.398C49.9569 132.25 49.8356 132.12 49.6294 132.008L49.0231 131.677L49.6477 130.546C49.7648 130.567 49.8961 130.602 50.0417 130.648C50.1918 130.688 50.3456 130.74 50.5032 130.804C50.6652 130.861 50.8081 130.923 50.9319 130.99Z" fill="black"/>
<path d="M46.989 128.571C47.1893 128.71 47.3887 128.884 47.5874 129.091C47.7783 129.293 47.9334 129.521 48.0525 129.776C48.1663 130.037 48.2103 130.325 48.1845 130.638C48.1456 130.954 48.0018 131.288 47.7531 131.64C47.4559 132.061 47.1175 132.344 46.7381 132.492C46.3586 132.638 45.9454 132.669 45.4984 132.586C45.0383 132.505 44.5479 132.329 44.0271 132.057C43.5063 131.785 42.9571 131.448 42.3794 131.046L42.0632 131.493C41.9389 131.669 41.8616 131.844 41.8314 132.016C41.7934 132.184 41.8205 132.357 41.9128 132.536C41.9974 132.709 42.1668 132.885 42.421 133.062C42.6751 133.239 42.9047 133.353 43.1097 133.405C43.307 133.452 43.4754 133.449 43.615 133.398C43.7415 133.349 43.8453 133.267 43.9263 133.152L44.0236 133.014L45.5833 134.102C45.564 134.146 45.5435 134.183 45.5219 134.214C45.4949 134.252 45.4624 134.297 45.4246 134.351C45.176 134.704 44.8546 134.93 44.4606 135.033C44.0612 135.143 43.6164 135.129 43.1263 134.993C42.6362 134.857 42.1293 134.606 41.6055 134.241C41.0433 133.849 40.6248 133.449 40.3501 133.04C40.0677 132.626 39.9263 132.207 39.9261 131.785C39.9181 131.357 40.0655 130.928 40.3681 130.499L42.3059 127.755C42.4032 127.617 42.4376 127.487 42.4093 127.365C42.3678 127.244 42.297 127.149 42.1969 127.079L41.8156 126.814L42.5534 125.769C42.6574 125.784 42.8039 125.829 42.9926 125.904C43.1868 125.97 43.3994 126.085 43.6305 126.246C43.8538 126.402 44.0298 126.576 44.1583 126.768C44.2845 126.947 44.3648 127.135 44.3993 127.33C44.4283 127.534 44.4065 127.735 44.3338 127.936L44.4147 127.992C44.6591 127.923 44.9209 127.894 45.1999 127.906C45.4712 127.912 45.7583 127.97 46.0611 128.078C46.3562 128.18 46.6655 128.345 46.989 128.571ZM45.5947 129.398C45.3791 129.248 45.1649 129.143 44.9522 129.087C44.7341 129.037 44.5295 129.026 44.3383 129.053C44.1416 129.087 43.9558 129.163 43.7806 129.281C43.5978 129.393 43.4415 129.541 43.3118 129.725L43.0767 130.058C43.508 130.359 43.9147 130.596 44.2969 130.771C44.6736 130.954 45.0108 131.047 45.3083 131.049C45.5981 131.046 45.8296 130.921 46.0025 130.676C46.0998 130.538 46.1489 130.396 46.1499 130.248C46.1508 130.099 46.1048 129.953 46.0116 129.808C45.9185 129.663 45.7796 129.527 45.5947 129.398Z" fill="black"/>
<path d="M39.5773 122.682C40.155 123.219 40.5467 123.767 40.7525 124.33C40.9518 124.898 40.9588 125.488 40.7733 126.096C40.5746 126.704 40.1766 127.326 39.5793 127.962C38.9692 128.611 38.3718 129.048 37.7871 129.274C37.189 129.499 36.5976 129.532 36.013 129.373C35.4214 129.208 34.8403 128.861 34.2694 128.331C33.8981 127.987 33.6063 127.632 33.394 127.269C33.1749 126.9 33.042 126.52 32.9954 126.132C32.9487 125.743 32.9988 125.36 33.1456 124.986C33.2792 124.61 33.5194 124.238 33.8662 123.869L35.3 125.199C35.0688 125.446 34.9172 125.682 34.8452 125.91C34.7731 126.138 34.7776 126.365 34.8587 126.595C34.933 126.816 35.087 127.037 35.3208 127.254C35.5959 127.509 35.8772 127.655 36.1647 127.691C36.4523 127.728 36.7497 127.665 37.057 127.502C37.3643 127.339 37.6849 127.081 38.0189 126.725L38.2404 126.489C38.5679 126.141 38.8028 125.809 38.9451 125.493C39.0804 125.171 39.1165 124.866 39.0533 124.576C38.9837 124.294 38.8045 124.019 38.5156 123.75C38.2818 123.534 38.0507 123.396 37.8223 123.338C37.5871 123.272 37.3511 123.284 37.1145 123.372C36.8778 123.459 36.6503 123.619 36.432 123.852L35.0703 122.588C35.3978 122.239 35.7485 121.983 36.1223 121.818C36.4892 121.647 36.8694 121.57 37.2629 121.59C37.6494 121.604 38.039 121.703 38.4315 121.888C38.824 122.073 39.2059 122.338 39.5773 122.682Z" fill="black"/>
<path d="M34.6108 117.462C34.9173 117.817 35.1013 118.159 35.1627 118.489C35.2242 118.818 35.1908 119.124 35.0624 119.406C34.9269 119.694 34.727 119.951 34.4629 120.176L31.2822 122.889L31.8798 123.582L30.7339 124.559L30.0903 123.815L28.2449 124.908L27.252 123.759L28.8584 122.388L27.9758 121.366L29.1217 120.389L30.0043 121.411L32.9387 118.907C33.11 118.761 33.2084 118.609 33.2338 118.452C33.252 118.301 33.1845 118.136 33.0313 117.959L32.5808 117.437L33.5661 116.597C33.6682 116.658 33.779 116.736 33.8985 116.831C34.0251 116.921 34.1507 117.023 34.2753 117.138C34.4071 117.248 34.5189 117.356 34.6108 117.462Z" fill="black"/>
<path d="M28.3292 108.367C28.7597 109.135 29.0073 109.865 29.0721 110.557C29.1323 111.24 28.9983 111.867 28.6699 112.434C28.3334 113.005 27.7952 113.496 27.0554 113.906L21.7905 116.821L20.7601 114.982L25.9757 112.095C26.584 111.758 26.9632 111.339 27.1134 110.839C27.2554 110.343 27.1592 109.796 26.8249 109.2C26.4906 108.604 26.0739 108.235 25.5747 108.094C25.0627 107.949 24.5026 108.045 23.8943 108.382L18.6788 111.269L17.6484 109.432L22.9133 106.517C23.6531 106.108 24.3561 105.911 25.0224 105.927C25.6805 105.948 26.2885 106.168 26.8465 106.587C27.3999 106.998 27.8941 107.591 28.3292 108.367Z" fill="black"/>
<path d="M24.4112 99.8286C24.5889 100.312 24.6958 100.765 24.7319 101.19C24.768 101.615 24.7434 101.997 24.6579 102.337C24.5637 102.68 24.4114 102.974 24.2012 103.219C23.9878 103.457 23.7132 103.636 23.3774 103.758C23.342 103.771 23.3067 103.784 23.2713 103.797C23.236 103.81 23.2078 103.815 23.1869 103.813L22.5375 102.047C22.5552 102.041 22.5729 102.034 22.5905 102.028C22.6082 102.022 22.6259 102.015 22.6436 102.009C22.8613 101.92 23.0166 101.783 23.1095 101.601C23.1936 101.421 23.2278 101.214 23.2122 100.98C23.1933 100.739 23.1402 100.499 23.053 100.262C22.9754 100.051 22.8834 99.8554 22.777 99.6756C22.6585 99.4887 22.522 99.3496 22.3675 99.2564C22.2097 99.1544 22.0469 99.1339 21.879 99.195C21.6669 99.272 21.5357 99.4192 21.4854 99.6368C21.4319 99.8455 21.4215 100.103 21.4542 100.41C21.4837 100.707 21.514 101.035 21.5452 101.392C21.5843 101.717 21.6146 102.044 21.6361 102.375C21.6487 102.709 21.6252 103.026 21.5654 103.327C21.5024 103.618 21.3791 103.882 21.1954 104.118C21.0028 104.357 20.721 104.544 20.3498 104.679C19.9875 104.81 19.6447 104.845 19.3214 104.784C18.9893 104.725 18.6848 104.592 18.4079 104.384C18.1277 104.167 17.88 103.888 17.6648 103.548C17.4375 103.203 17.2447 102.815 17.0864 102.385C16.9378 101.981 16.843 101.588 16.8022 101.204C16.7525 100.823 16.7631 100.472 16.8341 100.147C16.8963 99.8256 17.0236 99.5454 17.2161 99.306C17.3998 99.0699 17.6419 98.8974 17.9424 98.7882C18.0042 98.7657 18.0617 98.7449 18.1147 98.7256C18.1677 98.7063 18.2047 98.6979 18.2256 98.7002L18.8701 100.453L18.7641 100.49C18.605 100.549 18.4902 100.645 18.4197 100.781C18.3404 100.919 18.3037 101.092 18.3097 101.298C18.3124 101.496 18.3607 101.723 18.4543 101.977C18.519 102.153 18.592 102.311 18.6734 102.45C18.7516 102.581 18.8366 102.69 18.9284 102.776C19.0202 102.862 19.1172 102.921 19.2194 102.954C19.3094 102.981 19.4075 102.975 19.5136 102.937C19.6638 102.883 19.7649 102.776 19.8169 102.617C19.8568 102.453 19.8689 102.255 19.8532 102.022C19.8375 101.788 19.8182 101.532 19.7952 101.252C19.7673 100.903 19.7345 100.541 19.6969 100.166C19.6472 99.7869 19.6381 99.4221 19.6696 99.0716C19.7012 98.7217 19.8156 98.4063 20.0129 98.1255C20.2013 97.8481 20.5165 97.6289 20.9583 97.4684C21.3825 97.3143 21.7712 97.2677 22.1242 97.3286C22.474 97.3808 22.7905 97.5196 23.0739 97.7452C23.3573 97.9708 23.6098 98.2624 23.8315 98.6199C24.0532 98.9775 24.2464 99.3804 24.4112 99.8286Z" fill="black"/>
<path d="M17.0452 90.7722L15.1941 90.8997L16.4618 92.1673L15.5853 92.8692L14.573 91.4064L14.0369 93.1064L12.9883 92.6993L13.8131 91.1111L12.0233 91.5414L11.8535 90.4463L13.6906 90.321L12.4229 89.0534L13.2995 88.3514L14.3279 89.826L14.8479 88.1143L15.8964 88.5213L15.0716 90.1095L16.8753 89.6771L17.0452 90.7722Z" fill="black"/>
<path d="M21.0514 75.5321C20.983 76.5304 20.7509 77.3723 20.3549 78.0579C19.9496 78.7428 19.3634 79.2467 18.5962 79.5698C17.8297 79.8834 16.8737 80.0015 15.7284 79.9241C14.0386 79.8098 12.8135 79.3145 12.0529 78.4383C11.2837 77.5521 10.9505 76.358 11.0534 74.8559C11.1096 74.0349 11.3009 73.3074 11.6273 72.6734C11.9536 72.0394 12.4112 71.5548 13 71.2198C13.5895 70.8753 14.3114 70.732 15.1657 70.7898L15.0219 72.889C14.5713 72.8585 14.1847 72.926 13.8621 73.0917C13.5402 73.248 13.2879 73.4887 13.1053 73.8138C12.914 74.1288 12.8033 74.5057 12.7733 74.9441C12.7324 75.5412 12.8158 76.0436 13.0237 76.4513C13.2322 76.8497 13.5601 77.1578 14.0073 77.3754C14.4458 77.5832 14.9936 77.7093 15.6507 77.7538L16.0872 77.7833C16.7632 77.829 17.3375 77.7741 17.8103 77.6186C18.2737 77.4625 18.6355 77.2058 18.8958 76.8485C19.1473 76.4812 19.2935 75.999 19.3344 75.402C19.3663 74.9355 19.3143 74.5242 19.1784 74.1683C19.0424 73.8123 18.8259 73.5306 18.5289 73.323C18.2319 73.1154 17.8581 72.9965 17.4075 72.966L17.5455 70.9508C18.3998 71.0086 19.0958 71.2431 19.6335 71.6544C20.1718 72.0564 20.5594 72.5934 20.7964 73.2655C21.0239 73.937 21.1089 74.6925 21.0514 75.5321Z" fill="black"/>
<path d="M22.4951 66.2009C22.3092 66.9836 22.0186 67.6168 21.6233 68.1006C21.2189 68.5822 20.7039 68.8986 20.0783 69.0497C19.4435 69.1986 18.7002 69.1732 17.8485 68.9735C16.9785 68.7694 16.3023 68.4619 15.8198 68.0508C15.3282 67.6377 15.0145 67.127 14.8786 66.5186C14.7335 65.9081 14.7539 65.2115 14.9398 64.4289C15.13 63.628 15.4262 62.9912 15.8285 62.5187C16.2238 62.0349 16.7342 61.7175 17.3599 61.5663C17.9763 61.4131 18.7196 61.4385 19.5896 61.6426C20.4413 61.8423 21.1175 62.1499 21.6183 62.5652C22.1099 62.9783 22.4282 63.4902 22.5733 64.1007C22.7114 64.7 22.6853 65.4 22.4951 66.2009ZM21.0115 65.853C21.1109 65.4343 21.112 65.0839 21.0146 64.8016C20.9195 64.5102 20.7257 64.2679 20.4333 64.0744C20.1408 63.8809 19.7611 63.7293 19.294 63.6198L18.9643 63.5425C18.4973 63.4329 18.0895 63.3997 17.7408 63.4428C17.3922 63.486 17.1098 63.6167 16.8936 63.835C16.6704 64.0421 16.5091 64.3549 16.4096 64.7736C16.3124 65.1831 16.3159 65.5346 16.4202 65.8281C16.5176 66.1103 16.7124 66.3483 17.0049 66.5418C17.2973 66.7352 17.677 66.8867 18.1441 66.9963L18.4738 67.0736C18.9408 67.1831 19.3487 67.2163 19.6973 67.1732C20.0459 67.1301 20.3272 67.004 20.5413 66.7948C20.7575 66.5764 20.9142 66.2625 21.0115 65.853Z" fill="black"/>
<path d="M23.7191 61.0118L16.8242 58.2762L17.426 56.7782L18.4274 57.0093L18.464 56.9181C18.2996 56.6716 18.178 56.4069 18.0992 56.124C18.0239 55.8323 17.9983 55.5302 18.0226 55.2175C18.0468 54.905 18.1252 54.5837 18.2578 54.2537C18.4392 53.8021 18.681 53.4398 18.9831 53.167C19.2852 52.8943 19.652 52.7377 20.0836 52.6975C20.5186 52.6486 21.0245 52.7385 21.6013 52.9674L26.2154 54.7981L25.488 56.6087L21.1622 54.8925C20.9438 54.8058 20.7498 54.7591 20.5803 54.7522C20.4021 54.7419 20.244 54.7698 20.106 54.8359C19.9627 54.8898 19.8396 54.9819 19.7366 55.1123C19.6336 55.2426 19.5455 55.3989 19.4722 55.5813C19.364 55.8505 19.3319 56.1197 19.3758 56.3888C19.4196 56.6579 19.5307 56.8983 19.7091 57.11C19.8875 57.3218 20.1252 57.4866 20.4223 57.6044L24.4466 59.201L23.7191 61.0118Z" fill="black"/>
<path d="M28.3108 51.3107C28.0875 51.7223 27.8321 52.0157 27.5446 52.1909C27.2571 52.3662 26.9578 52.4449 26.6468 52.4271C26.3276 52.4047 26.0147 52.3115 25.7082 52.1473L22.0184 50.1703L21.583 50.9728L20.2537 50.2606L20.7226 49.3963L19.0332 48.0768L19.7566 46.7434L21.6201 47.7419L22.2631 46.5566L23.5925 47.2689L22.9494 48.4541L26.3535 50.278C26.5523 50.3845 26.7301 50.4213 26.8869 50.3885C27.0354 50.3512 27.1655 50.2297 27.2771 50.0239L27.6053 49.419L28.7483 50.0313C28.7278 50.1478 28.6943 50.2786 28.6477 50.4236C28.6094 50.573 28.5583 50.7263 28.4945 50.8833C28.439 51.0448 28.3777 51.1873 28.3108 51.3107Z" fill="black"/>
<path d="M30.7142 47.3758C30.5752 47.5758 30.4022 47.7753 30.1953 47.9742C29.9937 48.1654 29.7654 48.3211 29.5102 48.4415C29.2473 48.5565 28.9581 48.6023 28.6427 48.5789C28.3248 48.5426 27.9879 48.4021 27.6317 48.1577C27.2059 47.8654 26.9179 47.5312 26.7675 47.1552C26.6172 46.7792 26.5823 46.3688 26.6627 45.924C26.7408 45.4662 26.9147 44.9774 27.1844 44.458C27.454 43.9384 27.7894 43.3902 28.1906 42.8132L27.7377 42.5022C27.5596 42.38 27.3834 42.3045 27.209 42.2756C27.0399 42.2392 26.8659 42.2674 26.6869 42.3604C26.5132 42.4458 26.3381 42.6153 26.1616 42.8692C25.9851 43.1231 25.8717 43.3521 25.8213 43.5562C25.7762 43.7526 25.78 43.92 25.8325 44.0583C25.8826 44.1836 25.9657 44.2862 26.0818 44.3659L26.2212 44.4616L25.1382 46.0195C25.0941 46.0006 25.0566 45.9806 25.0256 45.9593C24.9869 45.9328 24.9405 45.9009 24.8863 45.8636C24.5302 45.6191 24.2992 45.3015 24.1935 44.9107C24.08 44.5145 24.09 44.0724 24.2234 43.5845C24.3568 43.0964 24.6054 42.5908 24.9691 42.0675C25.3595 41.5059 25.7593 41.0872 26.1685 40.8111C26.583 40.5275 27.003 40.3839 27.4285 40.3805C27.8593 40.3694 28.2915 40.5127 28.725 40.8104L31.5005 42.7158C31.6398 42.8115 31.7711 42.8448 31.8942 42.8157C32.015 42.7735 32.1101 42.7025 32.1797 42.6025L32.4444 42.2217L33.5011 42.9471C33.4864 43.0507 33.4422 43.1965 33.3686 43.3846C33.3027 43.5781 33.1896 43.7903 33.0291 44.021C32.874 44.2441 32.7001 44.4202 32.5074 44.5494C32.3278 44.6761 32.1399 44.7573 31.9435 44.793C31.7394 44.8234 31.5362 44.8031 31.3338 44.7324L31.2776 44.8132C31.3493 45.0556 31.3802 45.3155 31.3703 45.5929C31.3658 45.8626 31.3102 46.1482 31.2034 46.45C31.1019 46.744 30.9388 47.0526 30.7142 47.3758ZM29.8719 45.9962C30.0217 45.7808 30.1244 45.5672 30.1802 45.3554C30.2282 45.1383 30.2381 44.9349 30.2099 44.7451C30.174 44.5499 30.0962 44.3658 29.9764 44.1927C29.8619 44.0118 29.7118 43.8575 29.526 43.7299L29.1892 43.4988C28.8897 43.9296 28.6533 44.3356 28.4799 44.7166C28.2988 45.0923 28.2083 45.428 28.2086 45.7238C28.2143 46.0118 28.341 46.2408 28.5887 46.4109C28.7281 46.5066 28.8721 46.5543 29.0209 46.5542C29.1697 46.554 29.3166 46.5072 29.4617 46.4136C29.6069 46.32 29.7436 46.1808 29.8719 45.9962Z" fill="black"/>
<path d="M36.5869 39.9662C36.0516 40.5442 35.502 40.9374 34.9381 41.146C34.3672 41.3483 33.775 41.3595 33.1615 41.1797C32.5474 40.9866 31.9184 40.5957 31.2745 40.0068C30.6167 39.4053 30.1725 38.8148 29.9418 38.2353C29.7106 37.6426 29.6727 37.0552 29.8282 36.473C29.99 35.8839 30.3353 35.3038 30.8642 34.7327C31.2082 34.3611 31.5623 34.0686 31.9263 33.855C32.2966 33.6346 32.6772 33.4997 33.0681 33.4505C33.4589 33.4013 33.8438 33.4482 34.2227 33.5914C34.601 33.7214 34.9771 33.9574 35.351 34.2993L34.0226 35.734C33.7733 35.5061 33.534 35.3571 33.3047 35.2871C33.0753 35.2172 32.8458 35.2233 32.6162 35.3056C32.3929 35.3811 32.173 35.5357 31.9564 35.7697C31.7015 36.0449 31.5567 36.3256 31.5221 36.6116C31.4874 36.8976 31.553 37.1926 31.7189 37.4968C31.8848 37.801 32.1478 38.1178 32.5078 38.447L32.7467 38.6654C33.0998 38.9884 33.4358 39.2194 33.7546 39.3584C34.0797 39.4906 34.3875 39.5243 34.6778 39.4593C34.9611 39.388 35.2366 39.2079 35.5042 38.9189C35.7209 38.6849 35.8577 38.4543 35.9148 38.2269C35.9783 37.9926 35.9651 37.7583 35.8754 37.5238C35.7857 37.2892 35.6231 37.0642 35.3877 36.849L36.6493 35.4866C37.0024 35.8095 37.2633 36.1561 37.4319 36.5263C37.607 36.8897 37.686 37.267 37.6691 37.6581C37.6585 38.0424 37.5615 38.4303 37.3781 38.8217C37.1947 39.2131 36.9309 39.5946 36.5869 39.9662Z" fill="black"/>
<path d="M41.8026 34.9924C41.4479 35.2996 41.1049 35.4849 40.7737 35.5484C40.4426 35.6119 40.1346 35.5809 39.8498 35.4554C39.5589 35.3228 39.2991 35.1261 39.0704 34.8653L36.3167 31.7243L35.6249 32.3232L34.6329 31.1916L35.3778 30.5466L34.2637 28.7207L35.413 27.7256L36.8038 29.3119L37.8254 28.4273L38.8175 29.5589L37.7959 30.4435L40.3363 33.3412C40.4847 33.5104 40.638 33.6071 40.7964 33.6312C40.9486 33.6482 41.1134 33.58 41.2908 33.4264L41.8122 32.9749L42.6652 33.9479C42.6048 34.0498 42.5271 34.1605 42.4322 34.2799C42.3434 34.4063 42.2413 34.5319 42.126 34.6566C42.0168 34.7883 41.909 34.9002 41.8026 34.9924Z" fill="black"/>
<path d="M50.9056 28.6825C50.1361 29.116 49.4034 29.3674 48.7076 29.437C48.0199 29.5018 47.3896 29.3732 46.8165 29.0511C46.2387 28.7208 45.7411 28.1897 45.3235 27.4574L42.3516 22.2469L44.1935 21.2095L47.1375 26.3712C47.4809 26.9732 47.905 27.3469 48.4098 27.4925C48.91 27.63 49.4589 27.5304 50.0565 27.1938C50.6541 26.8572 51.022 26.4403 51.1603 25.9432C51.3021 25.4334 51.2014 24.8775 50.858 24.2754L47.914 19.1137L49.7558 18.0762L52.7277 23.2868C53.1453 24.0189 53.3483 24.7162 53.3366 25.3783C53.3203 26.0324 53.1034 26.6384 52.686 27.196C52.2767 27.7489 51.6832 28.2444 50.9056 28.6825Z" fill="black"/>
<path d="M59.4714 24.725C58.9867 24.9052 58.5306 25.0148 58.1033 25.0537C57.676 25.0928 57.2911 25.0711 56.9486 24.9888C56.6029 24.8975 56.3057 24.7485 56.057 24.5413C55.8171 24.3311 55.6345 24.0595 55.5093 23.7266C55.4961 23.6916 55.4829 23.6566 55.4697 23.6215C55.4565 23.5865 55.4511 23.5586 55.4533 23.5377L57.2248 22.8794C57.2314 22.8969 57.238 22.9144 57.2445 22.9319C57.2511 22.9495 57.2577 22.967 57.2643 22.9845C57.3555 23.2001 57.4936 23.3536 57.6785 23.4445C57.8602 23.5268 58.0683 23.5593 58.3029 23.542C58.5463 23.5213 58.787 23.4669 59.0249 23.3784C59.2365 23.2998 59.4326 23.207 59.6133 23.0999C59.7995 22.9807 59.939 22.8441 60.0316 22.6898C60.1331 22.5323 60.1525 22.3703 60.0899 22.204C60.0108 21.9937 59.8616 21.8645 59.6425 21.8161C59.4322 21.7645 59.1729 21.7561 58.8645 21.7907C58.5649 21.8222 58.2356 21.8547 57.8765 21.8884C57.5505 21.9297 57.2212 21.9623 56.8886 21.986C56.5527 22.001 56.2333 21.98 55.9305 21.9228C55.6365 21.8623 55.3701 21.7416 55.1313 21.5609C54.8892 21.3714 54.6989 21.0926 54.5605 20.7248C54.4253 20.3656 54.3876 20.0253 54.4474 19.7035C54.5039 19.373 54.6357 19.0694 54.843 18.7928C55.0592 18.5127 55.3375 18.2646 55.678 18.0481C56.024 17.8198 56.4129 17.6253 56.8448 17.4648C57.2502 17.3141 57.6456 17.217 58.0311 17.1736C58.4133 17.1214 58.7679 17.1294 59.095 17.1975C59.4187 17.2569 59.7016 17.3814 59.9437 17.5709C60.1825 17.7518 60.358 17.9911 60.47 18.2888C60.4931 18.3501 60.5145 18.4071 60.5343 18.4597C60.5541 18.5121 60.5629 18.5489 60.5606 18.5697L58.8024 19.2231L58.7628 19.118C58.7035 18.9603 58.6056 18.8469 58.4691 18.7779C58.3293 18.7001 58.1553 18.6649 57.9472 18.6724C57.7478 18.6766 57.5204 18.7262 57.2648 18.8212C57.0885 18.8867 56.9304 18.9604 56.7905 19.0424C56.6593 19.121 56.5508 19.2063 56.4648 19.2982C56.3788 19.39 56.3198 19.4868 56.2878 19.5886C56.2613 19.6783 56.2678 19.7757 56.3073 19.8809C56.3634 20.0297 56.4712 20.1294 56.6309 20.1799C56.796 20.2184 56.9959 20.2289 57.2305 20.2116C57.4651 20.1943 57.7233 20.1732 58.0053 20.1483C58.3555 20.118 58.719 20.0827 59.0957 20.0426C59.4779 19.9904 59.8452 19.9787 60.1976 20.0075C60.55 20.0362 60.8681 20.1476 61.1521 20.3416C61.4328 20.5267 61.6555 20.8383 61.8203 21.2763C61.9785 21.6967 62.0283 22.0825 61.9696 22.4338C61.9197 22.7817 61.7823 23.0974 61.5574 23.3807C61.3325 23.6639 61.0409 23.9171 60.6828 24.14C60.3247 24.363 59.9209 24.5579 59.4714 24.725Z" fill="black"/>
<path d="M68.5308 17.3385L68.3891 15.4999L67.1228 16.769L66.4101 15.903L67.8747 14.8863L66.1602 14.366L66.5621 13.321L68.1662 14.1291L67.7202 12.3536L68.8209 12.1768L68.9604 14.0016L70.2266 12.7325L70.9393 13.5985L69.4631 14.6312L71.1893 15.1355L70.7873 16.1804L69.1833 15.3724L69.6315 17.1617L68.5308 17.3385Z" fill="black"/>
<path d="M80 123.563C104.301 123.563 124 103.986 124 79.8361C124 55.6865 104.301 36.1094 80 36.1094C55.6995 36.1094 36 55.6865 36 79.8361C36 103.986 55.6995 123.563 80 123.563Z" fill="#6A52E0"/>
<path fill-rule="evenodd" clip-rule="evenodd" d="M87.5907 69.951C84.8324 72.6921 79.701 72.5893 76.8267 69.7327L75.6481 68.5615L73.3854 70.8102L74.5639 71.9813C76.6546 74.0591 79.4958 75.1332 82.3174 75.1916L68.3574 89.0649L70.7144 91.4072L84.6744 77.5339C84.7332 80.3379 85.814 83.1616 87.9047 85.2393L89.0832 86.4105L91.3459 84.1617L90.1674 82.9905C87.293 80.134 87.1895 75.0346 89.9477 72.2934L91.0791 71.169L88.7221 68.8267L87.5907 69.951Z" fill="white"/>
</g>
<defs>
<clipPath id="clip0_827_63">
<rect width="160" height="160" fill="white"/>
</clipPath>
</defs>
</svg>
