<svg width="160" height="160" viewBox="0 0 160 160" fill="none" xmlns="http://www.w3.org/2000/svg">
<g clip-path="url(#clip0_827_19)">
<path d="M80 160C124.183 160 160 124.183 160 80C160 35.8172 124.183 0 80 0C35.8172 0 0 35.8172 0 80C0 124.183 35.8172 160 80 160Z" fill="#6A52E0"/>
<path d="M85.6336 21.1438C84.6309 21.0533 83.7891 20.8026 83.1081 20.3916C82.428 19.9712 81.934 19.3739 81.6259 18.5997C81.3272 17.8264 81.2295 16.8681 81.3327 15.7248C81.4849 14.0379 82.0101 12.824 82.9084 12.0831C83.8169 11.3337 85.0255 11.0271 86.5343 11.1632C87.359 11.2377 88.0867 11.445 88.7173 11.7854C89.3479 12.1257 89.8253 12.594 90.1494 13.1901C90.4829 13.787 90.6112 14.5119 90.5342 15.3647L88.4256 15.1744C88.4662 14.7246 88.4068 14.3366 88.2472 14.0104C88.0971 13.6851 87.8605 13.4276 87.5375 13.2378C87.2247 13.0395 86.8481 12.9205 86.4077 12.8808C85.8079 12.8266 85.3006 12.8989 84.8859 13.0977C84.4805 13.2973 84.1634 13.6183 83.9345 14.0606C83.7159 14.4943 83.577 15.0392 83.5178 15.6952L83.4784 16.131C83.4175 16.8057 83.4601 17.3811 83.6061 17.8573C83.7529 18.324 84.0032 18.6914 84.3569 18.9595C84.7208 19.2191 85.2027 19.376 85.8025 19.4301C86.271 19.4724 86.6859 19.4295 87.047 19.3015C87.4081 19.1735 87.6963 18.9633 87.9117 18.671C88.127 18.3786 88.255 18.0075 88.2956 17.5577L90.3198 17.7404C90.2428 18.5932 89.9916 19.2838 89.566 19.8123C89.1497 20.3416 88.6009 20.7172 87.9196 20.9391C87.239 21.1517 86.4771 21.2199 85.6336 21.1438Z" fill="white"/>
<path d="M94.9928 22.7927C94.2095 22.5892 93.579 22.2844 93.1012 21.8784C92.6258 21.4632 92.3191 20.9411 92.1811 20.3123C92.0455 19.6743 92.0877 18.9318 92.3077 18.0848C92.5325 17.2196 92.8571 16.5505 93.2813 16.0774C93.708 15.5953 94.2289 15.2931 94.8439 15.171C95.4613 15.0397 96.1616 15.0758 96.9448 15.2793C97.7463 15.4876 98.3802 15.7981 98.8465 16.2109C99.3243 16.617 99.6322 17.1345 99.7702 17.7633C99.9105 18.3831 99.8683 19.1256 99.6435 19.9908C99.4235 20.8377 99.0989 21.5069 98.6699 21.9982C98.2433 22.4803 97.7212 22.7871 97.1038 22.9183C96.4979 23.0428 95.7942 23.0009 94.9928 22.7927ZM95.3761 21.3174C95.795 21.4262 96.1475 21.4352 96.4336 21.3442C96.7289 21.2557 96.9771 21.0674 97.1783 20.7794C97.3795 20.4914 97.5404 20.1152 97.6611 19.6507L97.7463 19.3229C97.867 18.8584 97.9095 18.4514 97.8739 18.1019C97.8384 17.7524 97.7132 17.4671 97.4984 17.246C97.2951 17.0182 96.984 16.8499 96.5651 16.741C96.1553 16.6345 95.8016 16.6301 95.504 16.7278C95.2178 16.8188 94.9742 17.0082 94.773 17.2962C94.5718 17.5842 94.4108 17.9604 94.2901 18.4249L94.205 18.7527C94.0843 19.2172 94.0417 19.6242 94.0773 19.9737C94.1129 20.3232 94.2335 20.6073 94.4392 20.826C94.654 21.0471 94.9663 21.2109 95.3761 21.3174Z" fill="white"/>
<path d="M100.168 24.1294L103.072 17.2969L104.566 17.9318L104.312 18.9278L104.402 18.9665C104.654 18.8076 104.923 18.6919 105.21 18.6194C105.505 18.5505 105.809 18.5317 106.123 18.5629C106.437 18.5941 106.758 18.6796 107.087 18.8195C107.538 19.0109 107.897 19.2606 108.165 19.5687C108.432 19.8768 108.582 20.247 108.613 20.6794C108.652 21.1154 108.551 21.6192 108.308 22.1907L106.364 26.763L104.559 25.9956L106.381 21.709C106.473 21.4925 106.524 21.2996 106.535 21.1303C106.549 20.9524 106.524 20.7937 106.461 20.6543C106.41 20.5099 106.32 20.3847 106.191 20.2788C106.062 20.173 105.907 20.0814 105.725 20.0041C105.457 19.89 105.187 19.8519 104.915 19.8897C104.643 19.9276 104.399 20.0334 104.182 20.207C103.965 20.3806 103.794 20.6146 103.669 20.9091L101.974 24.8969L100.168 24.1294Z" fill="white"/>
<path d="M109.835 28.9426C109.426 28.7102 109.136 28.4483 108.966 28.157C108.796 27.8656 108.724 27.5647 108.749 27.2542C108.778 26.9355 108.879 26.6248 109.051 26.3221L111.121 22.6772L110.324 22.224L111.07 20.9109L111.929 21.3989L113.293 19.7393L114.619 20.4922L113.573 22.333L114.751 23.0023L114.005 24.3154L112.827 23.6462L110.917 27.0088C110.806 27.2052 110.765 27.3821 110.794 27.5396C110.828 27.6889 110.948 27.8216 111.152 27.9378L111.754 28.2794L111.112 29.4085C110.995 29.3854 110.865 29.349 110.72 29.2992C110.57 29.2576 110.417 29.2031 110.261 29.1358C110.1 29.0767 109.958 29.0123 109.835 28.9426Z" fill="white"/>
<path d="M113.743 31.4376C113.545 31.2942 113.348 31.1168 113.152 30.9055C112.964 30.6998 112.813 30.468 112.697 30.2102C112.587 29.9448 112.548 29.6547 112.578 29.3398C112.622 29.0229 112.77 28.6891 113.024 28.3385C113.328 27.9193 113.67 27.6387 114.052 27.4968C114.433 27.3548 114.847 27.329 115.293 27.4194C115.752 27.5076 116.239 27.6923 116.756 27.9735C117.273 28.2546 117.817 28.6021 118.389 29.0159L118.711 28.5701C118.838 28.3948 118.918 28.2203 118.951 28.0465C118.991 27.8783 118.967 27.7037 118.877 27.5227C118.795 27.3471 118.628 27.1683 118.377 26.9862C118.125 26.8041 117.898 26.6856 117.693 26.6307C117.497 26.5813 117.328 26.5814 117.188 26.6308C117.061 26.6781 116.956 26.7589 116.873 26.8732L116.774 27.0104L115.23 25.8931C115.25 25.8494 115.271 25.8124 115.293 25.7819C115.321 25.7438 115.354 25.6981 115.393 25.6447C115.647 25.2941 115.971 25.0703 116.367 24.9733C116.768 24.8686 117.212 24.8884 117.7 25.0326C118.188 25.1769 118.691 25.4366 119.21 25.8118C119.766 26.2146 120.179 26.6236 120.447 27.0388C120.723 27.4595 120.859 27.8826 120.853 28.3081C120.854 28.7391 120.701 29.168 120.392 29.5948L118.413 32.3272C118.314 32.4644 118.278 32.5949 118.304 32.7186C118.344 32.8403 118.413 32.937 118.512 33.0088L118.89 33.2819L118.136 34.3223C118.033 34.3052 117.887 34.2578 117.699 34.18C117.506 34.1099 117.295 33.992 117.067 33.8265C116.846 33.6665 116.672 33.4887 116.547 33.2932C116.423 33.1108 116.345 32.9211 116.314 32.724C116.288 32.5193 116.313 32.3165 116.388 32.1157L116.308 32.0578C116.063 32.1241 115.801 32.1492 115.522 32.1332C115.251 32.1227 114.965 32.0607 114.663 31.9472C114.37 31.8392 114.063 31.6694 113.743 31.4376ZM115.149 30.6262C115.363 30.7807 115.575 30.8882 115.787 30.9486C116.004 31.0014 116.209 31.0158 116.4 30.9919C116.598 30.9603 116.785 30.8866 116.961 30.7707C117.146 30.6603 117.304 30.5136 117.437 30.3307L117.677 29.9991C117.25 29.6901 116.847 29.4447 116.467 29.2629C116.093 29.0735 115.758 28.9756 115.46 28.9694C115.17 28.9686 114.937 29.0902 114.76 29.3341C114.661 29.4713 114.61 29.6142 114.607 29.763C114.604 29.9117 114.647 30.0597 114.738 30.2068C114.829 30.354 114.966 30.4938 115.149 30.6262Z" fill="white"/>
<path d="M121.064 37.4637C120.494 36.9159 120.111 36.3577 119.913 35.7893C119.722 35.214 119.724 34.6217 119.918 34.0123C120.126 33.4027 120.533 32.7825 121.14 32.1517C121.759 31.5074 122.363 31.0763 122.951 30.8585C123.552 30.6404 124.144 30.6155 124.726 30.7838C125.316 30.9586 125.892 31.3167 126.454 31.858C126.821 32.2102 127.107 32.5706 127.314 32.9392C127.528 33.3143 127.655 33.6978 127.696 34.0897C127.737 34.4815 127.681 34.8652 127.529 35.2409C127.39 35.6163 127.144 35.9871 126.792 36.3534L125.378 34.9935C125.613 34.7493 125.768 34.5134 125.843 34.2856C125.919 34.0579 125.917 33.8283 125.84 33.5969C125.769 33.3721 125.618 33.1488 125.387 32.927C125.116 32.6661 124.837 32.5152 124.55 32.4742C124.263 32.4333 123.965 32.4924 123.655 32.6515C123.345 32.8106 123.021 33.0665 122.682 33.4192L122.457 33.6532C122.124 33.9991 121.884 34.3299 121.738 34.6455C121.597 34.9677 121.557 35.2746 121.616 35.5663C121.681 35.8511 121.856 36.1305 122.141 36.4045C122.372 36.6262 122.601 36.7681 122.828 36.8302C123.063 36.8989 123.299 36.8909 123.537 36.8064C123.775 36.7219 124.004 36.5643 124.226 36.3337L125.569 37.6251C125.237 37.971 124.882 38.2241 124.506 38.3846C124.137 38.5515 123.755 38.6222 123.362 38.5966C122.976 38.5776 122.588 38.472 122.198 38.28C121.808 38.088 121.43 37.8159 121.064 37.4637Z" fill="white"/>
<path d="M125.955 42.791C125.654 42.4296 125.475 42.0826 125.418 41.7501C125.362 41.4175 125.399 41.1103 125.532 40.8284C125.672 40.5405 125.875 40.2851 126.143 40.0622L129.363 37.3786L128.776 36.6738L129.936 35.707L130.569 36.466L132.43 35.3926L133.406 36.5636L131.779 37.919L132.647 38.9599L131.487 39.9267L130.619 38.8858L127.648 41.3615C127.475 41.5061 127.374 41.6573 127.346 41.8151C127.326 41.9669 127.391 42.1332 127.542 42.3139L127.984 42.8452L126.987 43.6765C126.886 43.6138 126.776 43.5337 126.658 43.4361C126.533 43.3446 126.408 43.2398 126.286 43.1217C126.155 43.0097 126.045 42.8994 125.955 42.791Z" fill="white"/>
<path d="M132.101 52.0335C131.682 51.2546 131.445 50.5165 131.391 49.8193C131.341 49.1303 131.484 48.503 131.821 47.9372C132.166 47.367 132.711 46.8813 133.457 46.4801L138.765 43.625L139.768 45.4895L134.51 48.3178C133.897 48.6477 133.511 49.0634 133.353 49.5648C133.204 50.0619 133.292 50.6128 133.618 51.2178C133.943 51.8227 134.354 52.1998 134.851 52.3492C135.361 52.5023 135.922 52.414 136.536 52.0841L141.794 49.2558L142.797 51.1203L137.489 53.9754C136.743 54.3765 136.037 54.5639 135.371 54.5375C134.714 54.5067 134.109 54.2763 133.557 53.8466C133.01 53.4251 132.525 52.8207 132.101 52.0335Z" fill="white"/>
<path d="M135.889 60.6817C135.719 60.1931 135.619 59.7347 135.589 59.3066C135.559 58.8785 135.59 58.4942 135.68 58.1537C135.779 57.8101 135.936 57.5162 136.15 57.2722C136.367 57.0371 136.644 56.8606 136.982 56.7428C137.017 56.7304 137.053 56.718 137.088 56.7056C137.124 56.6932 137.152 56.6883 137.173 56.691L137.796 58.4768C137.778 58.483 137.76 58.4892 137.743 58.4954C137.725 58.5016 137.707 58.5078 137.689 58.514C137.47 58.6003 137.313 58.735 137.217 58.9178C137.131 59.0976 137.093 59.3049 137.106 59.5398C137.121 59.7837 137.17 60.0255 137.254 60.2654C137.328 60.4786 137.417 60.6767 137.521 60.8598C137.637 61.0486 137.771 61.1911 137.924 61.2871C138.081 61.3921 138.243 61.4151 138.412 61.3562C138.625 61.2818 138.759 61.1356 138.812 60.9176C138.869 60.7085 138.883 60.4494 138.855 60.1404C138.83 59.8401 138.804 59.5102 138.778 59.1505C138.744 58.8236 138.719 58.4936 138.702 58.1606C138.694 57.8244 138.723 57.5056 138.787 57.2041C138.854 56.9116 138.982 56.6479 139.169 56.4132C139.365 56.1754 139.649 55.9914 140.023 55.8612C140.387 55.7341 140.73 55.704 141.052 55.7709C141.384 55.8347 141.686 55.9733 141.96 56.1867C142.237 56.409 142.48 56.6928 142.69 57.0381C142.913 57.3891 143.1 57.7823 143.251 58.2176C143.394 58.6263 143.483 59.0238 143.518 59.4101C143.562 59.7934 143.546 60.1478 143.47 60.4732C143.404 60.7955 143.272 61.0756 143.076 61.3134C142.889 61.5481 142.644 61.7182 142.342 61.8236C142.28 61.8453 142.222 61.8654 142.169 61.884C142.116 61.9026 142.078 61.9106 142.058 61.9079L141.439 60.1355L141.546 60.0983C141.706 60.0425 141.822 59.9472 141.894 59.8122C141.976 59.6742 142.015 59.5011 142.012 59.2928C142.012 59.0934 141.968 58.8649 141.878 58.6073C141.816 58.4296 141.745 58.2699 141.666 58.1281C141.589 57.9953 141.506 57.8848 141.415 57.7968C141.325 57.7088 141.229 57.6477 141.127 57.6134C141.038 57.5849 140.939 57.5892 140.833 57.6264C140.682 57.6791 140.579 57.7847 140.525 57.9432C140.482 58.1074 140.467 58.307 140.48 58.542C140.492 58.7769 140.507 59.0356 140.526 59.318C140.549 59.6688 140.576 60.033 140.608 60.4105C140.652 60.7937 140.656 61.1612 140.619 61.5129C140.582 61.8645 140.463 62.1801 140.262 62.4597C140.069 62.7362 139.751 62.9519 139.307 63.1069C138.88 63.2557 138.491 63.2968 138.139 63.2303C137.79 63.1727 137.476 63.0283 137.196 62.7971C136.916 62.566 136.667 62.2689 136.451 61.9058C136.235 61.5428 136.048 61.1348 135.889 60.6817Z" fill="white"/>
<path d="M143.119 69.8972L144.971 69.7962L143.723 68.5022L144.609 67.8088L145.6 69.2954L146.161 67.5928L147.203 68.0177L146.355 69.6036L148.151 69.1969L148.305 70.3012L146.466 70.4004L147.715 71.6944L146.828 72.3878L145.822 70.8891L145.277 72.6037L144.234 72.1788L145.082 70.593L143.272 71.0016L143.119 69.8972Z" fill="white"/>
<path d="M138.893 85.185C138.976 84.1816 139.22 83.3379 139.626 82.654C140.042 81.9709 140.635 81.4724 141.407 81.1587C142.178 80.8543 143.136 80.7496 144.28 80.8443C145.968 80.9842 147.186 81.5005 147.933 82.3933C148.689 83.2962 149.005 84.5026 148.88 86.0123C148.811 86.8376 148.609 87.5667 148.273 88.1998C147.938 88.8329 147.473 89.3137 146.879 89.6422C146.285 89.9801 145.561 90.1137 144.708 90.043L144.882 87.9331C145.333 87.9703 145.72 87.908 146.045 87.7461C146.369 87.5936 146.625 87.3551 146.812 87.0308C147.008 86.7165 147.125 86.339 147.161 85.8983C147.211 85.2982 147.135 84.7914 146.933 84.3782C146.73 83.9743 146.407 83.6595 145.963 83.4339C145.528 83.2185 144.982 83.0835 144.326 83.0292L143.89 82.993C143.214 82.9371 142.639 82.9839 142.164 83.1333C141.699 83.2836 141.333 83.5366 141.068 83.8922C140.811 84.2581 140.657 84.7411 140.608 85.3412C140.569 85.8101 140.615 86.2246 140.745 86.5848C140.876 86.9449 141.088 87.2316 141.382 87.4448C141.676 87.658 142.048 87.7832 142.498 87.8205L142.33 89.846C141.477 89.7753 140.785 89.5291 140.253 89.1074C139.721 88.6951 139.341 88.1491 139.114 87.4694C138.897 86.7904 138.823 86.029 138.893 85.185Z" fill="white"/>
<path d="M137.308 94.5532C137.506 93.7685 137.806 93.1357 138.208 92.6549C138.62 92.1763 139.14 91.8657 139.768 91.7231C140.405 91.5827 141.147 91.6194 141.996 91.8331C142.863 92.0514 143.534 92.3709 144.01 92.7917C144.496 93.2147 144.802 93.7333 144.929 94.3474C145.064 94.9638 145.034 95.6644 144.836 96.4491C144.634 97.2521 144.328 97.8883 143.919 98.3577C143.516 98.8385 143.001 99.1502 142.373 99.2929C141.754 99.4379 141.012 99.4012 140.145 99.1829C139.296 98.9692 138.625 98.6496 138.13 98.2243C137.645 97.8013 137.334 97.2815 137.198 96.6651C137.069 96.0601 137.106 95.3561 137.308 94.5532ZM138.786 94.9255C138.681 95.3452 138.674 95.6978 138.767 95.9832C138.858 96.2778 139.048 96.5246 139.338 96.7236C139.627 96.9227 140.005 97.0808 140.47 97.198L140.798 97.2807C141.264 97.3979 141.671 97.4375 142.02 97.3993C142.37 97.3611 142.654 97.2338 142.873 97.0174C143.1 96.8124 143.266 96.5 143.371 96.0803C143.475 95.6697 143.477 95.3159 143.377 95.0191C143.284 94.7337 143.092 94.4914 142.803 94.2924C142.513 94.0933 142.136 93.9352 141.671 93.818L141.342 93.7352C140.877 93.618 140.47 93.5785 140.12 93.6167C139.771 93.6549 139.488 93.7776 139.271 93.9849C139.051 94.2014 138.89 94.5149 138.786 94.9255Z" fill="white"/>
<path d="M136.011 99.7451L142.865 102.599L142.241 104.097L141.243 103.85L141.205 103.941C141.366 104.192 141.484 104.46 141.558 104.746C141.629 105.04 141.651 105.345 141.622 105.659C141.593 105.973 141.51 106.295 141.372 106.625C141.184 107.077 140.937 107.438 140.631 107.708C140.325 107.978 139.956 108.13 139.524 108.164C139.088 108.207 138.583 108.109 138.01 107.87L133.424 105.96L134.178 104.149L138.478 105.94C138.695 106.03 138.888 106.08 139.057 106.089C139.235 106.102 139.394 106.077 139.533 106.012C139.677 105.96 139.801 105.869 139.906 105.74C140.011 105.61 140.102 105.454 140.178 105.272C140.29 105.002 140.326 104.732 140.286 104.461C140.246 104.189 140.139 103.946 139.963 103.73C139.788 103.514 139.553 103.345 139.257 103.222L135.257 101.556L136.011 99.7451Z" fill="white"/>
<path d="M131.272 109.441C131.501 109.03 131.761 108.739 132.051 108.566C132.341 108.394 132.642 108.32 132.952 108.342C133.271 108.369 133.583 108.468 133.887 108.638L137.547 110.681L137.994 109.88L139.313 110.616L138.831 111.479L140.501 112.831L139.757 114.162L137.909 113.13L137.248 114.313L135.93 113.577L136.59 112.394L133.214 110.509C133.017 110.399 132.839 110.359 132.682 110.39C132.533 110.425 132.401 110.545 132.286 110.751L131.949 111.355L130.816 110.722C130.838 110.605 130.873 110.474 130.922 110.328C130.962 110.179 131.016 110.025 131.082 109.868C131.14 109.706 131.203 109.564 131.272 109.441Z" fill="white"/>
<path d="M128.809 113.37C128.951 113.171 129.127 112.972 129.337 112.775C129.542 112.586 129.772 112.433 130.029 112.315C130.294 112.203 130.584 112.162 130.899 112.19C131.216 112.231 131.551 112.377 131.903 112.628C132.325 112.929 132.608 113.269 132.752 113.65C132.897 114.03 132.926 114.444 132.839 114.89C132.754 115.35 132.573 115.839 132.296 116.358C132.018 116.876 131.675 117.423 131.265 117.998L131.713 118.317C131.89 118.443 132.065 118.521 132.239 118.553C132.407 118.592 132.582 118.566 132.762 118.475C132.937 118.392 133.115 118.224 133.295 117.971C133.475 117.718 133.592 117.489 133.645 117.285C133.693 117.088 133.692 116.919 133.641 116.78C133.593 116.653 133.512 116.548 133.397 116.466L133.259 116.368L134.365 114.816C134.409 114.836 134.446 114.857 134.476 114.879C134.515 114.906 134.561 114.939 134.614 114.977C134.967 115.228 135.193 115.551 135.293 115.946C135.4 116.346 135.384 116.791 135.243 117.28C135.103 117.769 134.847 118.274 134.475 118.795C134.077 119.355 133.671 119.77 133.257 120.042C132.839 120.321 132.417 120.459 131.991 120.456C131.56 120.461 131.13 120.311 130.701 120.005L127.954 118.047C127.816 117.948 127.686 117.913 127.562 117.941C127.441 117.981 127.344 118.051 127.273 118.151L127.003 118.53L125.957 117.785C125.973 117.681 126.02 117.535 126.096 117.346C126.165 117.153 126.281 116.941 126.445 116.711C126.603 116.489 126.78 116.314 126.975 116.187C127.156 116.062 127.345 115.983 127.542 115.95C127.746 115.923 127.949 115.946 128.151 116.02L128.208 115.94C128.14 115.695 128.113 115.433 128.127 115.154C128.135 114.883 128.195 114.596 128.307 114.294C128.412 114 128.58 113.692 128.809 113.37ZM129.631 114.77C129.478 114.985 129.372 115.198 129.313 115.41C129.262 115.628 129.249 115.833 129.275 116.024C129.308 116.221 129.383 116.407 129.5 116.583C129.612 116.767 129.76 116.924 129.943 117.055L130.277 117.293C130.583 116.864 130.825 116.459 131.004 116.078C131.191 115.703 131.286 115.366 131.29 115.069C131.289 114.779 131.166 114.547 130.92 114.372C130.782 114.274 130.639 114.223 130.49 114.221C130.342 114.219 130.194 114.264 130.047 114.356C129.901 114.448 129.762 114.586 129.631 114.77Z" fill="white"/>
<path d="M122.831 120.737C123.374 120.163 123.93 119.775 124.497 119.574C125.07 119.379 125.663 119.376 126.274 119.566C126.885 119.769 127.508 120.172 128.143 120.774C128.792 121.388 129.227 121.989 129.45 122.576C129.672 123.175 129.701 123.767 129.537 124.35C129.367 124.941 129.013 125.519 128.476 126.086C128.126 126.455 127.768 126.744 127.401 126.954C127.027 127.17 126.645 127.3 126.253 127.344C125.862 127.388 125.477 127.335 125.101 127.185C124.724 127.049 124.352 126.806 123.983 126.457L125.332 125.032C125.578 125.265 125.815 125.419 126.044 125.493C126.272 125.566 126.501 125.563 126.732 125.484C126.957 125.411 127.179 125.259 127.399 125.027C127.658 124.754 127.807 124.473 127.845 124.186C127.884 123.899 127.823 123.601 127.662 123.293C127.5 122.984 127.242 122.662 126.887 122.325L126.651 122.102C126.303 121.772 125.97 121.534 125.654 121.39C125.33 121.252 125.023 121.214 124.732 121.275C124.448 121.342 124.17 121.519 123.898 121.806C123.678 122.039 123.537 122.269 123.477 122.497C123.41 122.731 123.42 122.967 123.506 123.205C123.592 123.442 123.752 123.671 123.984 123.891L122.702 125.243C122.354 124.913 122.098 124.56 121.935 124.185C121.765 123.817 121.692 123.436 121.715 123.043C121.731 122.657 121.834 122.268 122.023 121.877C122.212 121.486 122.481 121.106 122.831 120.737Z" fill="white"/>
<path d="M117.54 125.665C117.899 125.361 118.245 125.18 118.577 125.121C118.909 125.062 119.217 125.098 119.5 125.228C119.789 125.366 120.046 125.567 120.27 125.833L122.977 129.034L123.678 128.441L124.653 129.594L123.899 130.233L124.986 132.086L123.822 133.07L122.455 131.454L121.42 132.329L120.445 131.176L121.48 130.301L118.982 127.348C118.836 127.176 118.684 127.076 118.526 127.05C118.374 127.03 118.209 127.097 118.029 127.248L117.501 127.695L116.662 126.704C116.724 126.602 116.804 126.492 116.9 126.373C116.991 126.247 117.095 126.122 117.212 125.998C117.323 125.868 117.433 125.756 117.54 125.665Z" fill="white"/>
<path d="M108.343 131.875C109.119 131.451 109.855 131.208 110.552 131.149C111.241 131.094 111.869 131.232 112.437 131.565C113.01 131.906 113.5 132.447 113.907 133.19L116.801 138.477L114.944 139.493L112.077 134.256C111.742 133.646 111.324 133.263 110.821 133.109C110.323 132.964 109.773 133.056 109.17 133.386C108.568 133.716 108.194 134.13 108.048 134.628C107.899 135.139 107.991 135.699 108.325 136.31L111.193 141.547L109.335 142.564L106.441 137.277C106.035 136.534 105.842 135.83 105.863 135.164C105.889 134.506 106.115 133.9 106.541 133.345C106.958 132.794 107.559 132.305 108.343 131.875Z" fill="white"/>
<path d="M99.7244 135.734C100.211 135.56 100.669 135.456 101.097 135.423C101.525 135.39 101.909 135.418 102.25 135.506C102.595 135.603 102.89 135.757 103.135 135.969C103.372 136.184 103.551 136.46 103.671 136.797C103.684 136.832 103.696 136.868 103.709 136.903C103.722 136.939 103.727 136.967 103.724 136.988L101.943 137.624C101.937 137.606 101.93 137.588 101.924 137.571C101.918 137.553 101.911 137.535 101.905 137.518C101.817 137.299 101.681 137.143 101.498 137.049C101.317 136.963 101.11 136.927 100.875 136.941C100.631 136.958 100.39 137.01 100.15 137.095C99.9381 137.171 99.7406 137.262 99.5584 137.367C99.3704 137.484 99.2289 137.619 99.134 137.773C99.0302 137.93 99.0084 138.093 99.0685 138.261C99.1445 138.474 99.2917 138.606 99.51 138.658C99.7195 138.713 99.9787 138.725 100.287 138.695C100.587 138.668 100.917 138.64 101.277 138.611C101.603 138.575 101.933 138.547 102.266 138.528C102.602 138.518 102.921 138.543 103.223 138.605C103.516 138.671 103.781 138.796 104.017 138.981C104.256 139.176 104.442 139.459 104.575 139.831C104.705 140.194 104.737 140.537 104.673 140.86C104.612 141.192 104.475 141.495 104.264 141.771C104.044 142.049 103.762 142.295 103.418 142.508C103.069 142.732 102.677 142.922 102.243 143.077C101.835 143.223 101.438 143.315 101.052 143.353C100.669 143.4 100.315 143.386 99.9889 143.313C99.6661 143.248 99.3851 143.119 99.1458 142.925C98.9097 142.739 98.7378 142.496 98.6302 142.195C98.6081 142.133 98.5875 142.075 98.5685 142.022C98.5495 141.969 98.5413 141.932 98.5438 141.911L100.311 141.279L100.349 141.386C100.406 141.545 100.502 141.661 100.638 141.732C100.777 141.813 100.95 141.851 101.158 141.846C101.358 141.845 101.586 141.798 101.843 141.706C102.02 141.643 102.179 141.571 102.32 141.491C102.453 141.414 102.562 141.329 102.65 141.238C102.737 141.147 102.797 141.051 102.831 140.949C102.859 140.859 102.854 140.761 102.816 140.654C102.762 140.504 102.656 140.402 102.497 140.349C102.332 140.308 102.133 140.294 101.898 140.308C101.663 140.322 101.404 140.339 101.122 140.36C100.771 140.386 100.407 140.416 100.03 140.451C99.6475 140.497 99.2801 140.504 98.9282 140.47C98.5763 140.435 98.2598 140.319 97.9787 140.119C97.7009 139.929 97.4828 139.612 97.3245 139.169C97.1726 138.744 97.1285 138.355 97.1924 138.002C97.2475 137.653 97.3895 137.337 97.6186 137.056C97.8477 136.774 98.143 136.524 98.5044 136.304C98.8658 136.085 99.2725 135.895 99.7244 135.734Z" fill="white"/>
<path d="M90.5597 143.032L90.6744 144.884L91.9592 143.626L92.6591 144.507L91.1797 145.509L92.8864 146.057L92.4691 147.103L90.8771 146.266L91.297 148.059L90.1937 148.221L90.0811 146.383L88.7963 147.641L88.0964 146.76L89.5877 145.742L87.8691 145.21L88.2864 144.164L89.8784 145.001L89.4565 143.194L90.5597 143.032Z" fill="white"/>
<path d="M75.2484 138.914C76.2524 138.99 77.0978 139.228 77.7847 139.629C78.4709 140.039 78.9737 140.629 79.2931 141.399C79.6031 142.168 79.7149 143.125 79.6285 144.269C79.5011 145.958 78.9937 147.18 78.1065 147.934C77.2091 148.696 76.0051 149.021 74.4945 148.907C73.6688 148.844 72.9381 148.648 72.3026 148.317C71.667 147.986 71.1828 147.524 70.85 146.933C70.5078 146.341 70.3689 145.618 70.4333 144.764L72.5444 144.924C72.5104 145.374 72.5756 145.761 72.7399 146.085C72.8948 146.408 73.1351 146.662 73.4609 146.847C73.7765 147.041 74.1549 147.154 74.5959 147.188C75.1964 147.233 75.7025 147.153 76.1143 146.948C76.5167 146.743 76.829 146.417 77.0514 145.972C77.2636 145.535 77.3946 144.988 77.4441 144.331L77.477 143.895C77.528 143.219 77.477 142.644 77.324 142.17C77.1704 141.706 76.9147 141.342 76.5571 141.079C76.1894 140.825 75.7053 140.675 75.1048 140.63C74.6356 140.595 74.2215 140.644 73.8623 140.777C73.5031 140.91 73.218 141.125 73.007 141.42C72.7959 141.716 72.6734 142.088 72.6394 142.539L70.6128 142.386C70.6772 141.532 70.9183 140.838 71.3361 140.303C71.7445 139.768 72.2877 139.384 72.9657 139.152C73.6431 138.93 74.404 138.85 75.2484 138.914Z" fill="white"/>
<path d="M65.8689 137.398C66.655 137.59 67.29 137.885 67.7739 138.284C68.2554 138.692 68.5699 139.209 68.7173 139.836C68.8624 140.472 68.8313 141.215 68.6239 142.065C68.4121 142.934 68.0976 143.607 67.6804 144.087C67.261 144.575 66.7447 144.885 66.1316 145.017C65.5162 145.157 64.8154 145.131 64.0292 144.94C63.2248 144.743 62.5863 144.442 62.1139 144.036C61.6301 143.638 61.3145 143.125 61.1671 142.498C61.0175 141.88 61.0486 141.137 61.2605 140.269C61.4678 139.419 61.7824 138.745 62.204 138.247C62.6234 137.759 63.1408 137.444 63.7562 137.304C64.3602 137.17 65.0644 137.202 65.8689 137.398ZM65.5076 138.879C65.0871 138.776 64.7345 138.772 64.4498 138.868C64.1559 138.961 63.9105 139.153 63.7136 139.444C63.5168 139.735 63.3615 140.113 63.2477 140.579L63.1675 140.908C63.0537 141.375 63.0173 141.782 63.0581 142.131C63.0989 142.48 63.2283 142.763 63.4463 142.981C63.653 143.206 63.9666 143.37 64.3871 143.472C64.7985 143.573 65.1522 143.572 65.4483 143.47C65.733 143.374 65.9739 143.181 66.1707 142.89C66.3676 142.599 66.5229 142.221 66.6367 141.755L66.7169 141.426C66.8306 140.959 66.8671 140.552 66.8263 140.203C66.7855 139.854 66.6607 139.572 66.4518 139.356C66.2337 139.138 65.919 138.979 65.5076 138.879Z" fill="white"/>
<path d="M60.6639 136.141L57.8607 143.015L56.3577 142.402L56.5976 141.403L56.5061 141.365C56.2569 141.528 55.9897 141.647 55.7043 141.724C55.4103 141.797 55.1061 141.821 54.7918 141.794C54.4774 141.768 54.1547 141.687 53.8236 141.552C53.3705 141.367 53.0078 141.123 52.7355 140.818C52.4632 140.514 52.3084 140.146 52.2711 139.714C52.2251 139.279 52.3194 138.774 52.5539 138.199L54.4298 133.598L56.2465 134.339L54.4878 138.652C54.3989 138.87 54.3505 139.064 54.3423 139.233C54.3307 139.411 54.3576 139.569 54.423 139.708C54.4762 139.852 54.568 139.975 54.6984 140.079C54.8287 140.183 54.9854 140.273 55.1684 140.347C55.4385 140.457 55.7091 140.491 55.9802 140.45C56.2513 140.408 56.4941 140.298 56.7084 140.122C56.9228 139.945 57.0904 139.708 57.2112 139.412L58.8473 135.4L60.6639 136.141Z" fill="white"/>
<path d="M50.9319 131.47C51.3443 131.696 51.6377 131.954 51.8119 132.243C51.9862 132.531 52.0632 132.831 52.0429 133.142C52.018 133.461 51.9219 133.773 51.7544 134.079L49.7379 137.754L50.5422 138.195L49.8157 139.519L48.9495 139.044L47.6094 140.723L46.273 139.99L47.2914 138.134L46.1035 137.482L46.83 136.158L48.0179 136.81L49.8783 133.419C49.9869 133.221 50.0253 133.044 49.9934 132.887C49.9569 132.738 49.8356 132.607 49.6294 132.494L49.0231 132.161L49.6477 131.023C49.7648 131.044 49.8961 131.079 50.0417 131.126C50.1918 131.166 50.3456 131.218 50.5032 131.283C50.6652 131.34 50.8081 131.402 50.9319 131.47Z" fill="white"/>
<path d="M46.989 129.041C47.1893 129.181 47.3887 129.356 47.5874 129.564C47.7783 129.767 47.9334 129.997 48.0525 130.253C48.1663 130.517 48.2103 130.806 48.1845 131.121C48.1456 131.439 48.0018 131.775 47.7531 132.129C47.4559 132.553 47.1175 132.838 46.7381 132.986C46.3586 133.133 45.9454 133.165 45.4984 133.081C45.0383 133 44.5479 132.822 44.0271 132.549C43.5063 132.275 42.9571 131.936 42.3794 131.531L42.0632 131.981C41.9389 132.158 41.8616 132.334 41.8314 132.508C41.7934 132.677 41.8205 132.851 41.9128 133.031C41.9974 133.205 42.1668 133.382 42.421 133.56C42.6751 133.738 42.9047 133.853 43.1097 133.905C43.307 133.952 43.4754 133.949 43.615 133.898C43.7415 133.849 43.8453 133.766 43.9263 133.651L44.0236 133.512L45.5833 134.607C45.564 134.651 45.5435 134.688 45.5219 134.719C45.4949 134.757 45.4624 134.804 45.4246 134.857C45.176 135.212 44.8546 135.44 44.4606 135.543C44.0612 135.654 43.6164 135.64 43.1263 135.503C42.6362 135.366 42.1293 135.114 41.6055 134.747C41.0433 134.352 40.6248 133.949 40.3501 133.538C40.0677 133.121 39.9263 132.7 39.9261 132.275C39.9181 131.844 40.0655 131.413 40.3681 130.981L42.3059 128.22C42.4032 128.081 42.4376 127.95 42.4093 127.827C42.3678 127.706 42.297 127.61 42.1969 127.54L41.8156 127.273L42.5534 126.221C42.6574 126.237 42.8039 126.282 42.9926 126.357C43.1868 126.424 43.3994 126.539 43.6305 126.701C43.8538 126.858 44.0298 127.033 44.1583 127.227C44.2845 127.407 44.3648 127.596 44.3993 127.792C44.4283 127.997 44.4065 128.2 44.3338 128.402L44.4147 128.458C44.6591 128.389 44.9209 128.36 45.1999 128.372C45.4712 128.378 45.7583 128.436 46.0611 128.545C46.3562 128.649 46.6655 128.814 46.989 129.041ZM45.5947 129.873C45.3791 129.722 45.1649 129.617 44.9522 129.56C44.7341 129.51 44.5295 129.499 44.3383 129.526C44.1416 129.56 43.9558 129.637 43.7806 129.755C43.5978 129.868 43.4415 130.017 43.3118 130.202L43.0767 130.537C43.508 130.84 43.9147 131.079 44.2969 131.255C44.6736 131.439 45.0108 131.532 45.3083 131.534C45.5981 131.531 45.8296 131.406 46.0025 131.159C46.0998 131.021 46.1489 130.877 46.1499 130.728C46.1508 130.579 46.1048 130.432 46.0116 130.286C45.9185 130.14 45.7796 130.003 45.5947 129.873Z" fill="white"/>
<path d="M39.5773 123.114C40.155 123.653 40.5467 124.206 40.7525 124.771C40.9518 125.344 40.9588 125.936 40.7733 126.548C40.5746 127.161 40.1766 127.787 39.5793 128.426C38.9692 129.08 38.3718 129.519 37.7871 129.746C37.189 129.973 36.5976 130.006 36.013 129.847C35.4214 129.68 34.8403 129.331 34.2694 128.798C33.8981 128.451 33.6063 128.095 33.394 127.729C33.1749 127.357 33.042 126.976 32.9954 126.584C32.9487 126.193 32.9988 125.809 33.1456 125.431C33.2792 125.054 33.5194 124.679 33.8661 124.308L35.3 125.647C35.0688 125.894 34.9172 126.133 34.8452 126.361C34.7731 126.59 34.7776 126.82 34.8587 127.05C34.933 127.274 35.087 127.495 35.3208 127.713C35.5959 127.97 35.8772 128.117 36.1647 128.154C36.4523 128.19 36.7497 128.127 37.057 127.963C37.3643 127.8 37.6849 127.539 38.0189 127.181L38.2404 126.944C38.5679 126.593 38.8028 126.259 38.9451 125.941C39.0804 125.617 39.1165 125.31 39.0533 125.019C38.9837 124.735 38.8045 124.458 38.5156 124.189C38.2818 123.97 38.0507 123.832 37.8223 123.773C37.5871 123.708 37.3511 123.719 37.1145 123.807C36.8778 123.895 36.6503 124.056 36.432 124.29L35.0703 123.018C35.3978 122.668 35.7485 122.409 36.1223 122.243C36.4892 122.071 36.8694 121.995 37.2629 122.015C37.6494 122.028 38.039 122.128 38.4315 122.314C38.824 122.5 39.2059 122.767 39.5773 123.114Z" fill="white"/>
<path d="M34.6108 117.862C34.9173 118.219 35.1013 118.564 35.1627 118.895C35.2242 119.227 35.1908 119.535 35.0624 119.818C34.9269 120.108 34.727 120.367 34.4629 120.593L31.2822 123.324L31.8798 124.02L30.7339 125.004L30.0903 124.254L28.2449 125.355L27.252 124.198L28.8584 122.819L27.9758 121.791L29.1217 120.807L30.0043 121.835L32.9387 119.316C33.11 119.169 33.2084 119.017 33.2338 118.858C33.252 118.706 33.1845 118.541 33.0313 118.362L32.5808 117.838L33.5661 116.992C33.6682 117.053 33.779 117.132 33.8985 117.227C34.0251 117.317 34.1507 117.42 34.2753 117.536C34.4071 117.647 34.5189 117.755 34.6108 117.862Z" fill="white"/>
<path d="M28.3292 108.713C28.7597 109.485 29.0073 110.22 29.0721 110.916C29.1323 111.604 28.9983 112.234 28.6699 112.805C28.3334 113.38 27.7952 113.873 27.0554 114.286L21.7905 117.219L20.7601 115.369L25.9757 112.464C26.584 112.125 26.9632 111.703 27.1134 111.2C27.2554 110.7 27.1592 110.151 26.8249 109.551C26.4906 108.951 26.0739 108.58 25.5747 108.438C25.0627 108.292 24.5026 108.389 23.8943 108.728L18.6788 111.633L17.6484 109.784L22.9133 106.851C23.6531 106.439 24.3561 106.241 25.0224 106.257C25.6805 106.278 26.2885 106.5 26.8465 106.921C27.3999 107.335 27.8941 107.932 28.3292 108.713Z" fill="white"/>
<path d="M24.4113 100.117C24.589 100.603 24.6959 101.06 24.732 101.488C24.7681 101.915 24.7434 102.3 24.658 102.642C24.5637 102.987 24.4115 103.283 24.2013 103.53C23.9879 103.768 23.7132 103.949 23.3774 104.072C23.3421 104.085 23.3067 104.098 23.2714 104.11C23.236 104.123 23.2079 104.129 23.187 104.126L22.5376 102.35C22.5553 102.343 22.5729 102.337 22.5906 102.331C22.6083 102.324 22.626 102.318 22.6436 102.311C22.8613 102.222 23.0167 102.085 23.1096 101.9C23.1937 101.719 23.2279 101.511 23.2122 101.277C23.1933 101.033 23.1402 100.792 23.053 100.554C22.9755 100.341 22.8835 100.145 22.7771 99.9633C22.6586 99.7762 22.5221 99.6358 22.3675 99.542C22.2098 99.4394 22.047 99.4187 21.8791 99.4801C21.667 99.5577 21.5358 99.7058 21.4855 99.9246C21.432 100.134 21.4216 100.394 21.4543 100.702C21.4837 101.002 21.5141 101.332 21.5452 101.691C21.5844 102.017 21.6147 102.347 21.6362 102.679C21.6488 103.016 21.6252 103.335 21.5655 103.637C21.5025 103.931 21.3791 104.196 21.1954 104.434C21.0029 104.674 20.7211 104.862 20.3499 104.998C19.9875 105.131 19.6447 105.166 19.3215 105.104C18.9893 105.045 18.6848 104.911 18.4079 104.701C18.1278 104.483 17.8801 104.203 17.6649 103.861C17.4376 103.513 17.2448 103.123 17.0865 102.69C16.9378 102.283 16.8431 101.887 16.8022 101.501C16.7525 101.119 16.7632 100.764 16.8342 100.438C16.8963 100.114 17.0236 99.8326 17.2162 99.5919C17.3999 99.3544 17.6419 99.1807 17.9424 99.0709C18.0043 99.0483 18.0617 99.0273 18.1147 99.0079C18.1678 98.9885 18.2047 98.98 18.2256 98.9824L18.8702 100.745L18.7641 100.784C18.6051 100.842 18.4903 100.939 18.4198 101.075C18.3404 101.214 18.3037 101.388 18.3097 101.596C18.3125 101.796 18.3607 102.024 18.4544 102.28C18.519 102.457 18.592 102.615 18.6735 102.756C18.7517 102.887 18.8367 102.997 18.9285 103.083C19.0203 103.17 19.1173 103.23 19.2194 103.262C19.3095 103.29 19.4076 103.284 19.5136 103.245C19.6638 103.19 19.765 103.083 19.8169 102.924C19.8568 102.759 19.869 102.559 19.8533 102.324C19.8376 102.09 19.8183 101.831 19.7953 101.549C19.7673 101.199 19.7346 100.835 19.6969 100.458C19.6472 100.075 19.6382 99.7083 19.6697 99.3561C19.7012 99.0039 19.8157 98.6866 20.0129 98.4041C20.2014 98.1248 20.5165 97.9044 20.9584 97.7428C21.3826 97.5878 21.7712 97.5409 22.1242 97.6022C22.474 97.6546 22.7906 97.7944 23.074 98.0214C23.3573 98.2484 23.6099 98.5418 23.8316 98.9016C24.0533 99.2613 24.2465 99.6666 24.4113 100.117Z" fill="white"/>
<path d="M17.0452 91.0017L15.1941 91.1299L16.4618 92.4054L15.5853 93.1118L14.573 91.6398L14.0369 93.3504L12.9883 92.9408L13.8131 91.3428L12.0233 91.7757L11.8535 90.6736L13.6906 90.5476L12.4229 89.272L13.2995 88.5658L14.3279 90.0495L14.8479 88.3271L15.8964 88.7367L15.0716 90.3348L16.8753 89.8997L17.0452 91.0017Z" fill="white"/>
<path d="M21.0494 75.6712C20.9811 76.6757 20.7489 77.5229 20.353 78.2127C19.9477 78.9019 19.3615 79.409 18.5943 79.734C17.8277 80.0497 16.8718 80.1685 15.7265 80.0906C14.0367 79.9755 12.8115 79.4772 12.051 78.5955C11.2817 77.7037 10.9486 76.5021 11.0514 74.9907C11.1077 74.1646 11.299 73.4325 11.6253 72.7945C11.9517 72.1566 12.4093 71.669 12.9981 71.3318C13.5876 70.9853 14.3094 70.8411 15.1637 70.8992L15.02 73.0114C14.5693 72.9808 14.1828 73.0488 13.8602 73.2154C13.5382 73.3727 13.286 73.6149 13.1034 73.942C12.912 74.2591 12.8013 74.6382 12.7713 75.0795C12.7304 75.6803 12.8139 76.1858 13.0218 76.5961C13.2303 76.997 13.5581 77.3069 14.0053 77.526C14.4438 77.735 14.9916 77.8619 15.6488 77.9066L16.0853 77.9364C16.7612 77.9824 17.3356 77.9271 17.8083 77.7707C18.2717 77.6136 18.6336 77.3553 18.8938 76.9958C19.1453 76.6262 19.2915 76.141 19.3324 75.5402C19.3644 75.0708 19.3124 74.657 19.1764 74.2988C19.0405 73.9406 18.824 73.6571 18.527 73.4482C18.2299 73.2394 17.8561 73.1196 17.4055 73.0889L17.5435 71.0612C18.3978 71.1193 19.0938 71.3553 19.6315 71.7692C20.1699 72.1736 20.5575 72.714 20.7944 73.3903C21.0219 74.066 21.1069 74.8263 21.0494 75.6712Z" fill="white"/>
<path d="M22.4951 66.2812C22.3092 67.0688 22.0186 67.706 21.6233 68.1927C21.2189 68.6774 20.7039 68.9957 20.0783 69.1478C19.4435 69.2977 18.7002 69.2721 17.8485 69.0711C16.9785 68.8657 16.3023 68.5563 15.8198 68.1427C15.3282 67.727 15.0145 67.213 14.8786 66.6009C14.7335 65.9865 14.7539 65.2856 14.9398 64.498C15.13 63.6921 15.4262 63.0514 15.8285 62.576C16.2238 62.0892 16.7342 61.7698 17.3599 61.6177C17.9763 61.4635 18.7196 61.4891 19.5896 61.6944C20.4413 61.8954 21.1175 62.2049 21.6183 62.6228C22.1099 63.0385 22.4282 63.5535 22.5733 64.1679C22.7114 64.7709 22.6853 65.4753 22.4951 66.2812ZM21.0115 65.931C21.1109 65.5098 21.112 65.1571 21.0146 64.8731C20.9195 64.58 20.7257 64.336 20.4333 64.1413C20.1408 63.9466 19.7611 63.7942 19.294 63.6839L18.9643 63.6061C18.4973 63.4959 18.0895 63.4625 17.7408 63.5059C17.3922 63.5493 17.1098 63.6808 16.8936 63.9005C16.6704 64.1088 16.5091 64.4237 16.4096 64.8449C16.3124 65.257 16.3159 65.6107 16.4202 65.9061C16.5176 66.1901 16.7124 66.4294 17.0049 66.6241C17.2973 66.8188 17.677 66.9713 18.1441 67.0815L18.4738 67.1594C18.9408 67.2696 19.3487 67.303 19.6973 67.2596C20.0459 67.2162 20.3272 67.0892 20.5413 66.8787C20.7575 66.659 20.9142 66.3431 21.0115 65.931Z" fill="white"/>
<path d="M23.7191 61.0579L16.8242 58.3053L17.426 56.7978L18.4274 57.0304L18.464 56.9387C18.2996 56.6907 18.178 56.4243 18.0992 56.1395C18.0239 55.846 17.9983 55.542 18.0226 55.2275C18.0468 54.913 18.1252 54.5897 18.2578 54.2576C18.4392 53.8032 18.681 53.4387 18.9831 53.1642C19.2852 52.8896 19.652 52.7321 20.0836 52.6917C20.5186 52.6424 21.0245 52.733 21.6013 52.9632L26.2154 54.8053L25.488 56.6274L21.1622 54.9004C20.9438 54.8132 20.7498 54.7661 20.5803 54.7593C20.4021 54.7489 20.244 54.777 20.106 54.8434C19.9627 54.8977 19.8396 54.9904 19.7366 55.1215C19.6336 55.2526 19.5455 55.4099 19.4722 55.5935C19.364 55.8644 19.3319 56.1352 19.3758 56.406C19.4196 56.6768 19.5307 56.9188 19.7091 57.1318C19.8875 57.3449 20.1252 57.5107 20.4223 57.6293L24.4466 59.2359L23.7191 61.0579Z" fill="white"/>
<path d="M28.3108 51.2955C28.0875 51.7096 27.8321 52.0049 27.5446 52.1812C27.2571 52.3576 26.9578 52.4368 26.6468 52.4188C26.3276 52.3963 26.0147 52.3025 25.7082 52.1373L22.0184 50.1479L21.583 50.9555L20.2537 50.2388L20.7226 49.3691L19.0332 48.0414L19.7566 46.6996L21.6201 47.7044L22.2631 46.5117L23.5925 47.2284L22.9494 48.421L26.3535 50.2563C26.5523 50.3635 26.7301 50.4005 26.8869 50.3675C27.0354 50.33 27.1655 50.2077 27.2771 50.0006L27.6053 49.3918L28.7483 50.0081C28.7278 50.1253 28.6943 50.2569 28.6477 50.4028C28.6094 50.5532 28.5583 50.7074 28.4945 50.8654C28.439 51.0279 28.3777 51.1713 28.3108 51.2955Z" fill="white"/>
<path d="M30.7142 47.3364C30.5752 47.5377 30.4022 47.7384 30.1953 47.9386C29.9937 48.131 29.7654 48.2878 29.5102 48.4088C29.2473 48.5245 28.9581 48.5707 28.6427 48.5472C28.3248 48.5106 27.9879 48.3693 27.6317 48.1233C27.2059 47.8291 26.9179 47.4929 26.7675 47.1145C26.6172 46.7362 26.5823 46.3232 26.6627 45.8756C26.7408 45.4149 26.9147 44.9232 27.1844 44.4004C27.454 43.8776 27.7894 43.3259 28.1906 42.7453L27.7377 42.4324C27.5596 42.3094 27.3834 42.2334 27.209 42.2044C27.0399 42.1677 26.8659 42.1961 26.6869 42.2897C26.5132 42.3756 26.3381 42.5463 26.1616 42.8018C25.9851 43.0572 25.8717 43.2877 25.8213 43.493C25.7762 43.6906 25.78 43.8591 25.8325 43.9983C25.8826 44.1244 25.9657 44.2275 26.0818 44.3078L26.2212 44.404L25.1382 45.9717C25.0941 45.9527 25.0566 45.9325 25.0256 45.9111C24.9869 45.8844 24.9405 45.8523 24.8863 45.8149C24.5302 45.5689 24.2992 45.2492 24.1935 44.856C24.08 44.4573 24.09 44.0125 24.2234 43.5214C24.3568 43.0303 24.6054 42.5215 24.9691 41.9951C25.3595 41.4299 25.7593 41.0085 26.1685 40.7308C26.583 40.4453 27.003 40.3009 27.4285 40.2975C27.8593 40.2863 28.2915 40.4305 28.725 40.73L31.5005 42.6474C31.6398 42.7436 31.7711 42.7771 31.8942 42.7479C32.015 42.7055 32.1101 42.634 32.1797 42.5333L32.4444 42.1501L33.5012 42.8802C33.4864 42.9843 33.4422 43.1311 33.3686 43.3204C33.3027 43.515 33.1896 43.7285 33.0291 43.9608C32.874 44.1853 32.7001 44.3625 32.5074 44.4924C32.3278 44.6199 32.1399 44.7017 31.9435 44.7376C31.7394 44.7681 31.5362 44.7478 31.3338 44.6766L31.2776 44.7579C31.3493 45.0018 31.3802 45.2633 31.3703 45.5424C31.3658 45.8138 31.3102 46.1013 31.2034 46.4049C31.1019 46.7008 30.9388 47.0113 30.7142 47.3364ZM29.8719 45.9483C30.0217 45.7315 30.1244 45.5166 30.1802 45.3035C30.2282 45.085 30.2381 44.8803 30.2099 44.6893C30.174 44.4929 30.0962 44.3076 29.9764 44.1334C29.8619 43.9514 29.7118 43.7962 29.526 43.6679L29.1892 43.4352C28.8897 43.8688 28.6533 44.2772 28.4799 44.6607C28.2988 45.0387 28.2083 45.3766 28.2086 45.6741C28.2143 45.9639 28.341 46.1944 28.5887 46.3655C28.7281 46.4618 28.8721 46.5099 29.0209 46.5097C29.1697 46.5096 29.3166 46.4624 29.4617 46.3682C29.6069 46.2741 29.7436 46.1341 29.8719 45.9483Z" fill="white"/>
<path d="M36.5869 39.8781C36.0516 40.4597 35.502 40.8554 34.9381 41.0653C34.3672 41.2688 33.775 41.2801 33.1615 41.0992C32.5474 40.9049 31.9184 40.5115 31.2745 39.919C30.6167 39.3137 30.1725 38.7195 29.9418 38.1364C29.7106 37.54 29.6727 36.9489 29.8282 36.3631C29.99 35.7704 30.3353 35.1866 30.8642 34.6119C31.2082 34.2381 31.5623 33.9437 31.9263 33.7288C32.2966 33.5069 32.6772 33.3712 33.0681 33.3217C33.4589 33.2722 33.8438 33.3194 34.2227 33.4635C34.601 33.5943 34.9771 33.8317 35.351 34.1758L34.0226 35.6195C33.7733 35.3901 33.534 35.2402 33.3047 35.1698C33.0753 35.0994 32.8458 35.1056 32.6162 35.1884C32.3929 35.2643 32.173 35.4199 31.9564 35.6554C31.7015 35.9323 31.5567 36.2147 31.5221 36.5025C31.4874 36.7903 31.553 37.0872 31.7189 37.3933C31.8848 37.6994 32.1478 38.0181 32.5078 38.3494L32.7467 38.5692C33.0998 38.8942 33.4358 39.1266 33.7546 39.2665C34.0797 39.3995 34.3875 39.4334 34.6778 39.368C34.9611 39.2963 35.2366 39.1151 35.5042 38.8243C35.7209 38.5888 35.8577 38.3567 35.9148 38.128C35.9783 37.8922 35.9651 37.6564 35.8754 37.4204C35.7857 37.1844 35.6231 36.9581 35.3877 36.7414L36.6493 35.3705C37.0024 35.6954 37.2633 36.0442 37.4319 36.4168C37.607 36.7824 37.686 37.162 37.6691 37.5556C37.6585 37.9423 37.5615 38.3326 37.3781 38.7264C37.1947 39.1203 36.9309 39.5042 36.5869 39.8781Z" fill="white"/>
<path d="M41.8026 34.8738C41.4479 35.1828 41.1049 35.3693 40.7737 35.4332C40.4426 35.4971 40.1346 35.4659 39.8498 35.3396C39.5589 35.2063 39.2991 35.0083 39.0704 34.7458L36.3167 31.5852L35.6249 32.1879L34.6329 31.0492L35.3778 30.4002L34.2637 28.5628L35.413 27.5615L36.8038 29.1578L37.8254 28.2677L38.8175 29.4063L37.7959 30.2964L40.3363 33.2123C40.4847 33.3825 40.638 33.4798 40.7964 33.504C40.9486 33.5212 41.1134 33.4525 41.2908 33.298L41.8122 32.8436L42.6652 33.8227C42.6048 33.9252 42.5271 34.0366 42.4322 34.1568C42.3434 34.2841 42.2413 34.4104 42.126 34.5359C42.0168 34.6684 41.909 34.781 41.8026 34.8738Z" fill="white"/>
<path d="M50.9074 28.53C50.1379 28.9661 49.4053 29.2192 48.7094 29.2891C48.0218 29.3544 47.3914 29.225 46.8183 28.9009C46.2406 28.5686 45.7429 28.034 45.3253 27.2973L42.3535 22.0542L44.1953 21.0102L47.1393 26.2042C47.4827 26.81 47.9068 27.1861 48.4116 27.3326C48.9119 27.4709 49.4607 27.3707 50.0583 27.032C50.6559 26.6932 51.0238 26.2738 51.1621 25.7736C51.304 25.2605 51.2032 24.7011 50.8599 24.0954L47.9158 18.9014L49.7577 17.8574L52.7295 23.1005C53.1471 23.8372 53.3501 24.5388 53.3384 25.2052C53.3221 25.8634 53.1053 26.473 52.6878 27.0341C52.2786 27.5906 51.6851 28.0892 50.9074 28.53Z" fill="white"/>
<path d="M59.4714 24.5478C58.9867 24.7291 58.5306 24.8393 58.1033 24.8786C57.676 24.9179 57.2911 24.896 56.9486 24.8131C56.6029 24.7214 56.3057 24.5714 56.057 24.363C55.8171 24.1513 55.6345 23.878 55.5093 23.5431C55.4961 23.5079 55.4829 23.4726 55.4697 23.4374C55.4565 23.4021 55.4511 23.374 55.4533 23.3531L57.2248 22.6906C57.2314 22.7082 57.238 22.7259 57.2445 22.7435C57.2511 22.7611 57.2577 22.7788 57.2643 22.7964C57.3555 23.0134 57.4936 23.1677 57.6785 23.2593C57.8602 23.3421 58.0683 23.3747 58.3029 23.3573C58.5463 23.3366 58.787 23.2818 59.0249 23.1928C59.2365 23.1137 59.4326 23.0202 59.6133 22.9125C59.7995 22.7926 59.939 22.6551 60.0316 22.4999C60.1331 22.3414 60.1525 22.1784 60.0899 22.0109C60.0108 21.7994 59.8616 21.6693 59.6425 21.6207C59.4322 21.5687 59.1729 21.5602 58.8645 21.5952C58.5649 21.6269 58.2356 21.6596 57.8765 21.6934C57.5505 21.735 57.2212 21.7677 56.8886 21.7917C56.5527 21.8068 56.2333 21.7856 55.9305 21.728C55.6365 21.6672 55.3701 21.5458 55.1313 21.3639C54.8892 21.1731 54.6989 20.8927 54.5605 20.5225C54.4253 20.1612 54.3876 19.8186 54.4474 19.4949C54.5039 19.1624 54.6357 18.8569 54.843 18.5784C55.0592 18.2967 55.3375 18.0469 55.678 17.8292C56.024 17.5993 56.4129 17.4037 56.8448 17.2421C57.2502 17.0905 57.6456 16.9929 58.0311 16.9492C58.4133 16.8966 58.7679 16.9047 59.095 16.9732C59.4187 17.033 59.7016 17.1583 59.9437 17.349C60.1825 17.5309 60.358 17.7717 60.47 18.0714C60.4931 18.1331 60.5145 18.1904 60.5343 18.2432C60.5541 18.2961 60.5629 18.333 60.5606 18.3539L58.8024 19.0115L58.7628 18.9057C58.7035 18.7471 58.6056 18.633 58.4691 18.5635C58.3293 18.4852 58.1553 18.4498 57.9472 18.4573C57.7478 18.4615 57.5204 18.5115 57.2648 18.607C57.0885 18.673 56.9304 18.7472 56.7905 18.8296C56.6593 18.9088 56.5508 18.9946 56.4648 19.087C56.3788 19.1795 56.3198 19.2769 56.2878 19.3793C56.2613 19.4696 56.2678 19.5676 56.3073 19.6733C56.3634 19.8232 56.4712 19.9235 56.6309 19.9743C56.796 20.013 56.9959 20.0236 57.2305 20.0062C57.4651 19.9888 57.7233 19.9676 58.0053 19.9425C58.3555 19.912 58.719 19.8765 59.0957 19.8361C59.4779 19.7836 59.8452 19.7718 60.1976 19.8007C60.55 19.8297 60.8681 19.9417 61.1521 20.1369C61.4328 20.3233 61.6555 20.6368 61.8203 21.0775C61.9785 21.5005 62.0283 21.8888 61.9696 22.2422C61.9197 22.5924 61.7823 22.91 61.5574 23.195C61.3325 23.4801 61.0409 23.7348 60.6828 23.9591C60.3247 24.1835 59.9209 24.3797 59.4714 24.5478Z" fill="white"/>
<path d="M68.5308 17.1089L68.3891 15.2589L67.1228 16.5358L66.4101 15.6645L67.8747 14.6414L66.1602 14.1179L66.5621 13.0664L68.1662 13.8795L67.7202 12.0929L68.8209 11.915L68.9604 13.7511L70.2266 12.4742L70.9393 13.3455L69.4631 14.3847L71.1893 14.8921L70.7873 15.9436L69.1833 15.1305L69.6315 16.931L68.5308 17.1089Z" fill="white"/>
<path d="M80 124C104.301 124 124 104.301 124 80C124 55.6995 104.301 36 80 36C55.6995 36 36 55.6995 36 80C36 104.301 55.6995 124 80 124Z" fill="#DCFD7D"/>
<path fill-rule="evenodd" clip-rule="evenodd" d="M87.5907 70.0545C84.8324 72.8127 79.701 72.7092 76.8267 69.8348L75.6481 68.6562L73.3854 70.919L74.5639 72.0975C76.6546 74.1882 79.4958 75.269 82.3174 75.3278L68.3574 89.2878L70.7144 91.6448L84.6744 77.6848C84.7332 80.5064 85.814 83.3476 87.9047 85.4383L89.0832 86.6168L91.3459 84.354L90.1674 83.1755C87.293 80.3012 87.1895 75.1698 89.9477 72.4115L91.0791 71.2801L88.7221 68.923L87.5907 70.0545Z" fill="black"/>
</g>
<defs>
<clipPath id="clip0_827_19">
<rect width="160" height="160" fill="white"/>
</clipPath>
</defs>
</svg>
