<svg width="209" height="53" viewBox="0 0 209 53" fill="none" xmlns="http://www.w3.org/2000/svg">
<rect x="-0.00488281" y="0.975586" width="52" height="52" rx="26" fill="#DCFD7D"/>
<path fill-rule="evenodd" clip-rule="evenodd" d="M35.6663 37.3756C35.6663 32.0302 31.3391 27.7029 25.9937 27.7029C24.2633 27.7029 22.623 28.158 21.2268 28.9628C19.9516 28.1272 18.9025 26.9599 18.2212 25.592C20.4529 24.1188 23.1243 23.2549 25.9963 23.2549C33.7997 23.2549 40.117 29.5876 40.117 37.3756C40.117 38.9851 39.8598 40.5329 39.3585 41.9753H34.5145C35.2549 40.61 35.6663 39.0468 35.6663 37.3756ZM17.005 33.8222C16.5654 34.9304 16.3211 36.1311 16.3211 37.3756C16.3211 39.0468 16.7453 40.61 17.491 41.9753H12.647C12.1456 40.5329 11.873 38.9851 11.873 37.3756C11.873 34.8558 12.5415 32.5007 13.696 30.4515C14.6062 31.7422 15.7297 32.8812 17.005 33.8222Z" fill="black"/>
<path fill-rule="evenodd" clip-rule="evenodd" d="M25.9939 11.9756C27.8323 11.9756 29.3338 13.4643 29.3338 15.3001C29.3338 17.1384 27.8297 18.6245 25.9939 18.6245C24.1556 18.6245 22.6694 17.1359 22.6694 15.3001C22.6694 13.4617 24.1556 11.9756 25.9939 11.9756Z" fill="#6A52E0"/>
<path fill-rule="evenodd" clip-rule="evenodd" d="M35.6663 21.7078C35.6663 22.9522 35.4375 24.153 34.9978 25.2611C36.2731 26.2021 37.3813 27.3412 38.3069 28.6319C39.4613 26.5827 40.1144 24.2275 40.1144 21.7078C40.1144 20.0983 39.8573 18.5504 39.3559 17.108H34.5119C35.2549 18.4733 35.6663 20.0366 35.6663 21.7078ZM30.776 30.118C29.3645 30.9227 27.7395 31.3778 25.9937 31.3778C20.6638 31.3778 16.3211 27.0506 16.3211 21.7052C16.3211 20.034 16.7453 18.4707 17.491 17.1055H12.647C12.1456 18.5479 11.873 20.0957 11.873 21.7052C11.873 29.5086 18.2058 35.8259 25.9937 35.8259C28.8785 35.8259 31.5499 34.9594 33.7817 33.4887C33.0849 32.1235 32.0513 30.9536 30.776 30.118Z" fill="#6A52E0"/>
<path d="M70.2751 37.4756V16.8956H74.7451V25.0556H83.8651V16.8956H88.3351V37.4756H83.8651V28.8356H74.7451V37.4756H70.2751ZM92.2923 37.4756V16.8956H96.7623V37.4756H92.2923ZM100.716 37.4756V16.8956H111.996C113.516 16.8956 114.776 17.1656 115.776 17.7056C116.796 18.2456 117.556 19.0056 118.056 19.9856C118.556 20.9456 118.806 22.0556 118.806 23.3156C118.806 24.6556 118.506 25.8456 117.906 26.8856C117.306 27.9056 116.436 28.6856 115.296 29.2256L119.496 37.4756H114.546L110.916 29.9756H105.186V37.4756H100.716ZM105.186 26.4356H111.396C112.296 26.4356 112.996 26.1656 113.496 25.6256C113.996 25.0656 114.246 24.3156 114.246 23.3756C114.246 22.7756 114.136 22.2656 113.916 21.8456C113.696 21.4056 113.376 21.0756 112.956 20.8556C112.536 20.6356 112.016 20.5256 111.396 20.5256H105.186V26.4356ZM119.93 37.4756L127.85 16.8956H133.37L141.29 37.4756H136.46L134.99 33.4256H126.02L124.55 37.4756H119.93ZM127.31 29.8256H133.7L131.87 24.7556C131.79 24.5356 131.69 24.2756 131.57 23.9756C131.47 23.6556 131.36 23.3056 131.24 22.9256C131.12 22.5456 131 22.1756 130.88 21.8156C130.78 21.4356 130.68 21.0956 130.58 20.7956H130.4C130.3 21.1756 130.17 21.6256 130.01 22.1456C129.85 22.6456 129.69 23.1356 129.53 23.6156C129.37 24.0756 129.24 24.4556 129.14 24.7556L127.31 29.8256ZM143.139 37.4756V16.8956H154.899C155.979 16.8956 156.949 17.1056 157.809 17.5256C158.689 17.9456 159.379 18.5356 159.879 19.2956C160.379 20.0556 160.629 20.9456 160.629 21.9656C160.629 22.7856 160.479 23.5156 160.179 24.1556C159.879 24.7956 159.469 25.3256 158.949 25.7456C158.449 26.1656 157.879 26.4756 157.239 26.6756V26.7956C157.999 26.9556 158.669 27.2556 159.249 27.6956C159.849 28.1356 160.319 28.7056 160.659 29.4056C161.019 30.0856 161.199 30.8956 161.199 31.8356C161.199 33.0756 160.909 34.1156 160.329 34.9556C159.769 35.7956 159.019 36.4256 158.079 36.8456C157.139 37.2656 156.089 37.4756 154.929 37.4756H143.139ZM147.609 33.8156H154.059C154.799 33.8156 155.399 33.6056 155.859 33.1856C156.339 32.7656 156.579 32.1156 156.579 31.2356C156.579 30.7156 156.479 30.2656 156.279 29.8856C156.079 29.5056 155.779 29.2156 155.379 29.0156C154.979 28.7956 154.469 28.6856 153.849 28.6856H147.609V33.8156ZM147.609 25.2056H153.549C154.089 25.2056 154.539 25.1056 154.899 24.9056C155.279 24.6856 155.559 24.4056 155.739 24.0656C155.939 23.7056 156.039 23.2956 156.039 22.8356C156.039 22.0556 155.819 21.4656 155.379 21.0656C154.959 20.6656 154.399 20.4656 153.699 20.4656H147.609V25.2056ZM164.189 37.4756V16.8956H168.659V33.6656H179.039V37.4756H164.189ZM181.314 37.4756V16.8956H197.754V20.5556H185.814V25.1456H196.374V28.7756H185.814V33.7856H197.934V37.4756H181.314Z" fill="white"/>
<path d="M201.342 37.4756V33.1856H205.692V37.4756H201.342Z" fill="#DCFD7D"/>
</svg>
