<svg width="60" height="60" viewBox="0 0 60 60" fill="none" xmlns="http://www.w3.org/2000/svg">
<rect width="60" height="60" rx="30" fill="#DCFD7D"/>
<path fill-rule="evenodd" clip-rule="evenodd" d="M41.1628 42.0003C41.1628 35.8325 36.1698 30.8396 30.0021 30.8396C28.0055 30.8396 26.1127 31.3647 24.5018 32.2933C23.0303 31.3291 21.8199 29.9822 21.0338 28.4039C23.6088 26.704 26.6912 25.7072 30.005 25.7072C39.0089 25.7072 46.2981 33.0142 46.2981 42.0003C46.2981 43.8574 46.0014 45.6434 45.4229 47.3077H39.8337C40.6881 45.7324 41.1628 43.9286 41.1628 42.0003ZM19.6305 37.9003C19.1232 39.179 18.8414 40.5644 18.8414 42.0003C18.8414 43.9286 19.3309 45.7324 20.1912 47.3077H14.602C14.0235 45.6434 13.709 43.8574 13.709 42.0003C13.709 39.0929 14.4803 36.3754 15.8124 34.011C16.8626 35.5003 18.159 36.8145 19.6305 37.9003Z" fill="black"/>
<path fill-rule="evenodd" clip-rule="evenodd" d="M30.002 12.6923C32.1231 12.6923 33.8557 14.41 33.8557 16.5283C33.8557 18.6494 32.1202 20.3642 30.002 20.3642C27.8808 20.3642 26.166 18.6465 26.166 16.5283C26.166 14.4071 27.8808 12.6923 30.002 12.6923Z" fill="#6A52E0"/>
<path fill-rule="evenodd" clip-rule="evenodd" d="M41.1628 23.9213C41.1628 25.3572 40.8987 26.7426 40.3914 28.0213C41.8629 29.1071 43.1416 30.4213 44.2096 31.9106C45.5416 29.5461 46.2952 26.8286 46.2952 23.9213C46.2952 22.0641 45.9985 20.2782 45.42 18.6139H39.8307C40.6881 20.1892 41.1628 21.9929 41.1628 23.9213ZM35.5201 33.6253C33.8914 34.5539 32.0165 35.079 30.0021 35.079C23.8521 35.079 18.8414 30.0861 18.8414 23.9183C18.8414 21.99 19.3309 20.1862 20.1912 18.6109H14.602C14.0235 20.2752 13.709 22.0612 13.709 23.9183C13.709 32.9222 21.016 40.2114 30.0021 40.2114C33.3307 40.2114 36.4131 39.2116 38.9882 37.5147C38.1842 35.9394 36.9916 34.5895 35.5201 33.6253Z" fill="#6A52E0"/>
</svg>
