<svg width="171" height="170" viewBox="0 0 171 170" fill="none" xmlns="http://www.w3.org/2000/svg">
<circle cx="85.9609" cy="85" r="85" fill="#6A52E0"/>
<path d="M91.7744 24.943C90.6858 24.8389 89.764 24.5717 89.0088 24.1413C88.2673 23.6996 87.6055 23.08 87.0234 22.2825L89.1166 20.5452C89.496 21.0802 89.9292 21.5117 90.4162 21.8396C90.9168 22.1561 91.5113 22.3472 92.1994 22.413C92.825 22.4729 93.3173 22.4048 93.6764 22.209C94.048 22.0143 94.2527 21.7142 94.2905 21.3085C94.3247 20.9409 94.2399 20.6323 94.0359 20.3826C93.832 20.1329 93.55 19.9077 93.19 19.707C92.8425 19.5075 92.4507 19.3102 92.0144 19.115C91.5907 18.921 91.1687 18.708 90.7485 18.476C90.3295 18.2313 89.9459 17.9452 89.5977 17.6178C89.2632 17.2788 89.004 16.8768 88.8201 16.4116C88.6374 15.9337 88.578 15.3525 88.6417 14.668C88.7185 13.8441 88.9786 13.1528 89.422 12.5941C89.8778 12.0366 90.4703 11.6393 91.1993 11.402C91.9295 11.1521 92.7513 11.0709 93.6646 11.1582C94.5905 11.2468 95.4197 11.4923 96.1522 11.8949C96.8972 12.2986 97.4934 12.8097 97.9407 13.4279L95.8475 15.1653C95.4861 14.7087 95.1084 14.3592 94.7144 14.1169C94.3329 13.8758 93.8857 13.7308 93.3727 13.6817C92.8597 13.6326 92.4436 13.6952 92.1245 13.8693C91.8065 14.0307 91.6303 14.2952 91.5961 14.6628C91.5642 15.005 91.6508 15.2947 91.8559 15.5317C92.0623 15.7561 92.3398 15.9617 92.6884 16.1485C93.0496 16.3365 93.4421 16.5275 93.8658 16.7215C94.3021 16.9166 94.7297 17.1366 95.1487 17.3813C95.5677 17.626 95.9439 17.9241 96.2772 18.2757C96.6242 18.6158 96.8879 19.0375 97.0682 19.5407C97.2497 20.0313 97.308 20.6252 97.2431 21.3223C97.1238 22.6026 96.5795 23.5673 95.6101 24.2163C94.6419 24.8527 93.3634 25.0949 91.7744 24.943Z" fill="white"/>
<path d="M104.717 27.3634L106.169 22.2819C106.302 21.8172 106.264 21.4016 106.054 21.0354C105.861 20.6604 105.546 20.4092 105.112 20.2817C104.81 20.1931 104.525 20.1825 104.257 20.2497C103.993 20.3047 103.76 20.4351 103.557 20.6407C103.358 20.8341 103.214 21.0837 103.127 21.3894L102.211 20.544C102.41 19.8469 102.73 19.2779 103.17 18.837C103.61 18.3961 104.129 18.1112 104.729 17.9822C105.332 17.841 105.971 17.8695 106.647 18.0678C107.336 18.2697 107.897 18.5935 108.332 19.0393C108.771 19.4729 109.056 19.9872 109.187 20.5823C109.333 21.1688 109.31 21.7983 109.118 22.4709L107.487 28.1762L104.717 27.3634ZM98.9042 25.6582L102.711 12.3398L105.481 13.1526L101.675 26.471L98.9042 25.6582Z" fill="white"/>
<path d="M113.031 30.9965C112.282 30.6066 111.707 30.0705 111.304 29.3884C110.912 28.7121 110.707 27.961 110.687 27.1351C110.68 26.315 110.885 25.4916 111.305 24.6649C111.724 23.8382 112.265 23.1894 112.928 22.7185C113.602 22.2534 114.324 21.9852 115.095 21.9141C115.877 21.8489 116.642 22.0112 117.391 22.4011C117.939 22.6862 118.376 23.0499 118.703 23.492C119.041 23.9399 119.252 24.4292 119.336 24.9597C119.426 25.4789 119.364 25.9907 119.151 26.4951L117.341 30.0624C117.061 30.5319 116.683 30.8864 116.208 31.1259C115.751 31.36 115.244 31.4682 114.687 31.4506C114.131 31.433 113.579 31.2816 113.031 30.9965ZM114.74 28.9229C115.288 29.208 115.821 29.2567 116.34 29.0689C116.865 28.8697 117.271 28.4871 117.559 27.9208C117.754 27.5358 117.848 27.1553 117.841 26.7794C117.845 26.4093 117.747 26.0723 117.548 25.7682C117.366 25.4587 117.096 25.2108 116.739 25.0246C116.381 24.8384 116.019 24.7575 115.654 24.7818C115.305 24.8007 114.972 24.9137 114.655 25.1209C114.349 25.3339 114.099 25.6329 113.903 26.0179C113.714 26.3916 113.623 26.7664 113.63 27.1423C113.637 27.5182 113.737 27.8639 113.93 28.1792C114.124 28.4946 114.394 28.7425 114.74 28.9229ZM115.364 31.9963L116.493 29.771L117.895 27.9673L118.526 25.7621L119.552 23.7406L122.067 25.05L117.879 33.3057L115.364 31.9963Z" fill="white"/>
<path d="M124.264 38.3045C123.782 37.9163 123.414 37.465 123.159 36.9508C122.904 36.4366 122.778 35.912 122.78 35.3771C122.79 34.8323 122.944 34.3297 123.241 33.8694L125.646 30.8047C126.021 30.4079 126.474 30.138 127.004 29.9952C127.533 29.8524 128.078 29.8438 128.637 29.9693C129.197 30.0948 129.718 30.3517 130.2 30.74C130.879 31.2867 131.35 31.9345 131.613 32.6833C131.886 33.4401 131.948 34.2214 131.797 35.0272C131.656 35.8409 131.3 36.6115 130.729 37.3391C130.158 38.0666 129.497 38.5916 128.747 38.9141C128.006 39.2445 127.241 39.3602 126.451 39.2612C125.672 39.1701 124.943 38.8513 124.264 38.3045ZM117.845 37.8919L125.951 27.5616L128.209 29.38L126.742 31.2488L124.989 32.7157L123.944 34.7531L120.073 39.6865L117.845 37.8919ZM125.47 35.9087C125.794 36.1702 126.133 36.3212 126.487 36.3619C126.85 36.4105 127.202 36.3607 127.543 36.2125C127.884 36.0643 128.184 35.8257 128.442 35.4968C128.708 35.158 128.874 34.8035 128.939 34.4335C129.005 34.0634 128.97 33.7096 128.833 33.372C128.714 33.0323 128.498 32.7357 128.183 32.4821C127.868 32.2286 127.529 32.0775 127.166 32.0289C126.82 31.9783 126.477 32.0271 126.136 32.1753C125.795 32.3235 125.491 32.567 125.225 32.9059C124.967 33.2348 124.8 33.5803 124.725 33.9424C124.659 34.3125 124.691 34.6713 124.819 35.0189C124.948 35.3665 125.165 35.6631 125.47 35.9087Z" fill="white"/>
<path d="M129.239 42.5828L135.875 36.1833L137.864 38.2998L131.228 44.6993L129.239 42.5828ZM137.791 36.3662C137.479 36.0342 137.328 35.6522 137.339 35.2202C137.367 34.7886 137.54 34.4192 137.859 34.112C138.187 33.7959 138.559 33.6386 138.977 33.6401C139.404 33.6507 139.773 33.822 140.085 34.154C140.397 34.486 140.543 34.8634 140.524 35.2862C140.505 35.709 140.331 36.0784 140.003 36.3945C139.685 36.7017 139.312 36.859 138.885 36.8664C138.467 36.8649 138.103 36.6982 137.791 36.3662Z" fill="white"/>
<path d="M136.32 51.2343L140.546 48.1273C140.933 47.8432 141.155 47.4915 141.211 47.0722C141.286 46.6557 141.19 46.2619 140.924 45.8909C140.74 45.6333 140.522 45.4477 140.269 45.3342C140.028 45.2132 139.764 45.1708 139.48 45.207C139.205 45.2357 138.941 45.3435 138.686 45.5304L138.476 44.2932C139.056 43.8669 139.656 43.6219 140.278 43.5579C140.9 43.494 141.49 43.6028 142.049 43.8842C142.625 44.1685 143.12 44.5992 143.534 45.1763C143.932 45.7328 144.151 46.3195 144.189 46.9364C144.244 47.5562 144.147 48.1467 143.897 48.7081C143.647 49.2695 143.268 49.7371 142.759 50.111L138.014 53.5994L136.32 51.2343ZM132.766 46.2724L140.181 40.8212L141.875 43.1862L134.46 48.6374L132.766 46.2724Z" fill="white"/>
<path d="M137.159 61.0057C136.734 60.0826 136.519 59.1937 136.514 58.3392C136.502 57.5015 136.689 56.7462 137.072 56.0733L139.427 56.9416C139.212 57.4084 139.098 57.8695 139.086 58.3249C139.079 58.7918 139.198 59.2906 139.442 59.8214C139.745 60.4792 140.141 60.9174 140.63 61.1359C141.124 61.3661 141.661 61.3439 142.242 61.0695L144.361 60.0686L146.379 59.663L148.007 58.4093L150.142 57.4004L151.337 59.9967L143.53 63.6855C142.675 64.0891 141.842 64.2369 141.03 64.129C140.217 64.0211 139.473 63.6986 138.796 63.1615C138.119 62.6244 137.573 61.9058 137.159 61.0057ZM141.084 59.0039C140.728 58.2307 140.594 57.4581 140.682 56.6858C140.77 55.9136 141.048 55.2064 141.515 54.5642C141.982 53.9221 142.597 53.4208 143.361 53.0602C144.135 52.6943 144.91 52.5392 145.684 52.5948C146.47 52.645 147.177 52.8867 147.807 53.3199C148.447 53.7478 148.945 54.3483 149.301 55.1214C149.567 55.6984 149.695 56.263 149.686 56.8153C149.693 57.3737 149.567 57.8829 149.307 58.3428C149.064 58.8089 148.7 59.1776 148.215 59.449L145.054 60.9422C144.548 61.139 144.036 61.1846 143.516 61.0791C143.012 60.9797 142.546 60.7504 142.117 60.391C141.688 60.0317 141.344 59.5693 141.084 59.0039ZM143.638 58.4081C143.808 58.7774 144.034 59.057 144.315 59.2471C144.602 59.4487 144.909 59.5569 145.234 59.5716C145.577 59.5924 145.919 59.5221 146.261 59.3607C146.602 59.1993 146.875 58.979 147.08 58.6998C147.289 58.4322 147.41 58.1223 147.442 57.77C147.479 57.4292 147.413 57.0742 147.243 56.705C147.078 56.3473 146.853 56.0676 146.566 55.866C146.279 55.6644 145.964 55.5531 145.622 55.5323C145.279 55.5114 144.937 55.5817 144.595 55.7431C144.277 55.8938 144.009 56.1114 143.794 56.3959C143.589 56.6751 143.468 56.9851 143.431 57.3258C143.399 57.6781 143.468 58.0388 143.638 58.4081Z" fill="white"/>
<path d="M150.802 74.1138L158.092 67.4785L158.71 70.8975L152.783 76.0565L152.385 73.8586L159.734 76.5519L160.339 79.8957L151.193 76.2741L150.802 74.1138ZM145.861 74.6626L152.073 73.5089L152.606 76.4582L146.395 77.6119L145.861 74.6626Z" fill="white"/>
<path d="M146.67 85.9103C146.672 84.9553 146.882 84.09 147.298 83.3143C147.727 82.5513 148.306 81.9478 149.036 81.5038C149.766 81.0598 150.584 80.8388 151.488 80.8409C152.393 80.8429 153.203 81.0675 153.919 81.5148C154.634 81.962 155.198 82.5681 155.611 83.3329C156.037 84.0978 156.249 84.9641 156.247 85.9318C156.245 86.8994 156.035 87.7647 155.619 88.5277C155.203 89.2908 154.629 89.8943 153.9 90.3383C153.182 90.7823 152.371 91.0033 151.466 91.0012C150.561 90.9992 149.745 90.7746 149.017 90.3273C148.289 89.88 147.712 89.2739 147.287 88.509C146.874 87.7442 146.668 86.8779 146.67 85.9103ZM149.291 85.9161C149.29 86.3363 149.377 86.7057 149.552 87.0244C149.74 87.3432 149.997 87.5857 150.323 87.7519C150.662 87.9309 151.045 88.0209 151.473 88.0219C151.9 88.0228 152.271 87.9345 152.586 87.757C152.913 87.5795 153.165 87.3318 153.341 87.0139C153.53 86.7087 153.625 86.346 153.626 85.9259C153.627 85.5184 153.534 85.1554 153.346 84.8366C153.171 84.5179 152.92 84.2691 152.594 84.0901C152.267 83.9111 151.89 83.8211 151.463 83.8202C151.048 83.8192 150.671 83.9075 150.331 84.085C150.004 84.2625 149.746 84.5102 149.557 84.8281C149.38 85.146 149.292 85.5087 149.291 85.9161Z" fill="white"/>
<path d="M145.636 97.2588C145.791 96.4204 146.096 95.7075 146.55 95.1201C147.014 94.5476 147.576 94.1362 148.236 93.8859C148.908 93.638 149.634 93.588 150.412 93.7358L155.637 94.7285L155.105 97.6005L149.917 96.6149C149.608 96.5562 149.334 96.5558 149.093 96.6137C148.85 96.6841 148.646 96.8139 148.484 97.0032C148.321 97.1924 148.211 97.4373 148.156 97.7376C148.077 98.1631 148.144 98.5256 148.357 98.8252C148.583 99.1271 148.93 99.3226 149.4 99.4118L154.587 100.397L154.056 103.269L148.849 102.28C148.059 102.13 147.395 101.816 146.856 101.338C146.331 100.863 145.954 100.273 145.726 99.5689C145.511 98.8673 145.481 98.0973 145.636 97.2588Z" fill="white"/>
<path d="M144.363 103.787L152.979 106.943L151.998 109.691L143.382 106.535L144.363 103.787ZM148.116 108.269L149.412 107.444C150.336 108.04 150.979 108.708 151.342 109.451C151.706 110.193 151.716 111.043 151.375 112.001C151.225 112.42 151.03 112.761 150.789 113.025C150.555 113.305 150.266 113.517 149.92 113.662L148.465 111.28C148.637 111.208 148.791 111.095 148.926 110.942C149.061 110.788 149.169 110.598 149.25 110.37C149.413 109.915 149.401 109.498 149.216 109.119C149.038 108.756 148.671 108.472 148.116 108.269Z" fill="white"/>
<path d="M141.756 121.196L143.662 122.499L142.059 124.905C141.855 125.211 141.731 125.534 141.688 125.873C141.644 126.211 141.693 126.537 141.834 126.848C141.975 127.16 142.217 127.433 142.561 127.668C142.894 127.896 143.23 128.018 143.568 128.034C143.906 128.05 144.222 127.974 144.516 127.807C144.809 127.639 145.058 127.402 145.262 127.096L146.865 124.69L148.771 125.993L146.926 128.764C146.455 129.471 145.889 130.013 145.228 130.39C144.567 130.768 143.862 130.939 143.113 130.903C142.367 130.884 141.634 130.629 140.916 130.138C140.197 129.646 139.685 129.05 139.378 128.349C139.075 127.665 138.968 126.939 139.056 126.17C139.154 125.408 139.439 124.673 139.91 123.966L141.756 121.196ZM139.006 116.55L150.037 124.094L148.381 126.579L137.35 119.035L139.006 116.55Z" fill="white"/>
<path d="M129.427 128.791C130.025 128.191 130.707 127.802 131.471 127.625C132.227 127.457 132.996 127.491 133.777 127.728C134.549 127.975 135.258 128.428 135.905 129.087C136.551 129.747 136.992 130.469 137.229 131.253C137.457 132.047 137.485 132.826 137.313 133.59C137.133 134.364 136.743 135.051 136.146 135.652C135.708 136.091 135.232 136.4 134.716 136.578C134.191 136.765 133.666 136.817 133.142 136.734C132.627 136.659 132.166 136.442 131.758 136.08L128.97 133.233C128.616 132.817 128.4 132.343 128.323 131.812C128.245 131.298 128.3 130.777 128.489 130.246C128.677 129.716 128.99 129.231 129.427 128.791ZM130.845 131.079C130.408 131.519 130.197 132.018 130.212 132.576C130.237 133.143 130.47 133.653 130.913 134.105C131.214 134.412 131.542 134.62 131.897 134.73C132.243 134.848 132.59 134.859 132.937 134.761C133.283 134.681 133.6 134.498 133.885 134.211C134.171 133.924 134.358 133.601 134.449 133.241C134.539 132.899 134.536 132.544 134.44 132.174C134.334 131.814 134.131 131.48 133.83 131.172C133.538 130.874 133.215 130.67 132.86 130.561C132.505 130.451 132.149 130.441 131.793 130.529C131.438 130.618 131.121 130.801 130.845 131.079ZM127.767 130.729L129.506 132.505L130.765 134.415L132.64 135.705L134.22 137.319L132.212 139.336L125.76 132.747L127.767 130.729Z" fill="white"/>
<path d="M122.565 135.147L130.09 145.826L127.742 147.524L120.218 136.845L122.565 135.147ZM128.152 139.46L129.576 141.481L123.853 145.62L122.429 143.599L128.152 139.46Z" fill="white"/>
<path d="M111.796 141.686L114.128 146.419C114.341 146.852 114.647 147.131 115.046 147.257C115.439 147.399 115.839 147.368 116.243 147.164C116.524 147.022 116.741 146.834 116.893 146.6C117.05 146.378 117.135 146.122 117.146 145.832C117.163 145.553 117.102 145.271 116.961 144.986L118.201 144.978C118.521 145.628 118.666 146.266 118.638 146.892C118.609 147.518 118.418 148.085 118.063 148.591C117.715 149.109 117.225 149.527 116.596 149.846C115.955 150.17 115.325 150.318 114.707 150.289C114.094 150.271 113.541 150.089 113.047 149.741C112.547 149.41 112.142 148.932 111.833 148.305L109.215 142.991L111.796 141.686ZM117.21 138.948L123.322 151.354L120.742 152.659L114.629 140.253L117.21 138.948Z" fill="white"/>
<path d="M101.371 145.456L104.333 158.229L101.525 158.897L98.5631 146.124L101.371 145.456ZM104.924 151.594L105.485 154.011L98.6398 155.64L98.0793 153.223L104.924 151.594Z" fill="white"/>
<path d="M90.8845 146.985C91.8245 146.915 92.6921 147.061 93.4871 147.423C94.2705 147.798 94.9084 148.338 95.4007 149.041C95.893 149.745 96.1724 150.554 96.239 151.468C96.3056 152.383 96.1459 153.218 95.7599 153.974C95.3739 154.731 94.8202 155.347 94.0987 155.822C93.3781 156.31 92.5416 156.59 91.589 156.661C90.6365 156.732 89.769 156.586 88.9865 156.223C88.2039 155.861 87.5665 155.327 87.0742 154.624C86.5829 153.933 86.3039 153.13 86.2373 152.216C86.1708 151.301 86.33 150.46 86.7151 149.69C87.1001 148.921 87.6529 148.293 88.3735 147.805C89.095 147.329 89.932 147.056 90.8845 146.985ZM91.0773 149.633C90.6637 149.663 90.3067 149.78 90.0063 149.981C89.7068 150.195 89.4877 150.473 89.3488 150.815C89.1983 151.171 89.1387 151.565 89.1702 151.997C89.2016 152.428 89.3166 152.796 89.5152 153.101C89.7147 153.418 89.9776 153.653 90.3039 153.808C90.6185 153.976 90.9827 154.044 91.3963 154.013C91.7973 153.983 92.1476 153.861 92.4471 153.648C92.7475 153.446 92.9734 153.174 93.1248 152.831C93.2762 152.488 93.3362 152.1 93.3048 151.668C93.2743 151.249 93.1588 150.875 92.9584 150.545C92.7589 150.228 92.4955 149.986 92.1683 149.819C91.842 149.665 91.4784 149.603 91.0773 149.633Z" fill="white"/>
<path d="M75.2552 146.182C76.0811 146.348 76.7803 146.703 77.3528 147.246C77.913 147.787 78.3144 148.452 78.557 149.241C78.7872 150.027 78.813 150.876 78.6342 151.788C78.4555 152.7 78.1115 153.474 77.6021 154.112C77.0804 154.747 76.4587 155.206 75.7369 155.489C75.0028 155.769 74.2228 155.827 73.3969 155.66C72.7929 155.539 72.2738 155.311 71.8396 154.977C71.393 154.641 71.0573 154.229 70.8324 153.742C70.605 153.268 70.5255 152.759 70.5938 152.215L71.365 148.281C71.5073 147.751 71.7741 147.305 72.1655 146.942C72.5422 146.59 73.0003 146.345 73.5398 146.207C74.0794 146.068 74.6512 146.06 75.2552 146.182ZM74.1752 148.651C73.5712 148.53 73.0452 148.632 72.597 148.957C72.1464 149.295 71.8599 149.776 71.7375 150.4C71.6542 150.825 71.6671 151.217 71.776 151.576C71.8726 151.933 72.0578 152.23 72.3317 152.467C72.5908 152.714 72.9176 152.877 73.3121 152.956C73.7065 153.036 74.0762 153.013 74.4211 152.887C74.7512 152.772 75.0405 152.571 75.2891 152.283C75.5253 151.993 75.685 151.636 75.7683 151.211C75.8491 150.799 75.835 150.413 75.7261 150.054C75.6172 149.695 75.427 149.39 75.1556 149.141C74.8841 148.891 74.5574 148.728 74.1752 148.651ZM72.7409 145.87L72.2597 148.324L71.4011 150.449L71.393 152.745L70.956 154.975L68.1825 154.416L69.9674 145.312L72.7409 145.87Z" fill="white"/>
<path d="M59.2244 140.727C60.2007 141.226 60.963 141.815 61.5115 142.495C62.0431 143.18 62.4365 144.001 62.6918 144.959L60.1176 145.804C59.9568 145.166 59.7086 144.604 59.373 144.119C59.0206 143.639 58.5358 143.242 57.9186 142.926C57.3576 142.64 56.8746 142.521 56.4698 142.571C56.0537 142.615 55.7552 142.819 55.5741 143.183C55.4099 143.513 55.3779 143.831 55.4781 144.139C55.5782 144.447 55.7598 144.761 56.0228 145.081C56.2747 145.395 56.5686 145.723 56.9047 146.066C57.2295 146.403 57.5459 146.757 57.8537 147.128C58.1559 147.511 58.4103 147.919 58.6167 148.353C58.8063 148.792 58.9031 149.262 58.907 149.763C58.9053 150.275 58.7516 150.838 58.446 151.452C58.0782 152.191 57.5873 152.739 56.9735 153.096C56.3484 153.447 55.6538 153.598 54.8896 153.55C54.1197 153.513 53.3252 153.285 52.5061 152.867C51.6757 152.442 50.9918 151.907 50.4545 151.262C49.9059 150.611 49.5345 149.915 49.3403 149.174L51.9145 148.329C52.0869 148.888 52.3129 149.353 52.5927 149.724C52.8612 150.089 53.2255 150.389 53.6856 150.624C54.1456 150.859 54.5556 150.955 54.9154 150.91C55.2696 150.878 55.5288 150.696 55.6929 150.367C55.8457 150.06 55.8692 149.758 55.7634 149.461C55.652 149.176 55.4675 148.882 55.21 148.58C54.9413 148.271 54.6445 147.949 54.3197 147.611C53.9836 147.269 53.6645 146.906 53.3623 146.523C53.0601 146.141 52.817 145.724 52.6331 145.274C52.4323 144.829 52.3384 144.339 52.3515 143.804C52.3589 143.28 52.5182 142.705 52.8295 142.08C53.401 140.932 54.2549 140.235 55.391 139.988C56.5215 139.753 57.7993 139.999 59.2244 140.727Z" fill="white"/>
<path d="M49.7375 134.75C50.4082 135.265 50.9014 135.86 51.2169 136.534C51.5147 137.211 51.6265 137.904 51.5522 138.614C51.4703 139.334 51.1901 140.014 50.7115 140.653L47.498 144.943L45.2004 143.177L48.391 138.917C48.581 138.663 48.7042 138.415 48.7609 138.17C48.8075 137.919 48.7837 137.677 48.6895 137.444C48.5953 137.212 48.428 137.004 48.1877 136.819C47.8474 136.557 47.4973 136.456 47.1375 136.515C46.7702 136.584 46.4421 136.811 46.1535 137.197L42.9628 141.457L40.6652 139.691L43.8672 135.415C44.3534 134.766 44.9278 134.305 45.5904 134.031C46.2453 133.767 46.9345 133.69 47.6578 133.798C48.3735 133.917 49.0667 134.234 49.7375 134.75Z" fill="white"/>
<path d="M41.6388 127.279C42.2831 127.976 42.716 128.751 42.9373 129.605C43.1586 130.46 43.1536 131.302 42.9223 132.132C42.691 132.962 42.2451 133.69 41.5846 134.317C40.915 134.952 40.1685 135.355 39.3449 135.526C38.5037 135.696 37.6697 135.642 36.8429 135.362C36.0162 135.082 35.2764 134.589 34.6235 133.883C34.1338 133.353 33.7788 132.783 33.5585 132.172C33.3204 131.561 33.2213 130.913 33.2612 130.23L35.8724 130.317C35.8442 130.64 35.8876 130.948 36.0026 131.24C36.109 131.523 36.2868 131.799 36.536 132.068C36.8195 132.375 37.1417 132.584 37.5026 132.695C37.8458 132.805 38.2011 132.817 38.5684 132.73C38.918 132.643 39.2488 132.451 39.5606 132.155C39.8725 131.859 40.0876 131.533 40.2058 131.177C40.3154 130.811 40.3273 130.442 40.2416 130.07C40.1558 129.698 39.9755 129.363 39.7005 129.066C39.4428 128.787 39.1693 128.584 38.88 128.457C38.5729 128.33 38.2592 128.27 37.9389 128.278L38.0373 125.646C38.7307 125.651 39.3798 125.785 39.9848 126.048C40.5806 126.32 41.132 126.731 41.6388 127.279Z" fill="white"/>
<path d="M35.5588 119.337C36.0824 120.131 36.3848 120.967 36.4659 121.847C36.5469 122.726 36.4066 123.556 36.0449 124.337C35.6832 125.117 35.1262 125.762 34.3738 126.272C33.611 126.788 32.8096 127.063 31.9696 127.095C31.1122 127.124 30.2981 126.933 29.5274 126.521C28.7566 126.108 28.106 125.5 27.5753 124.695C27.1773 124.092 26.9188 123.47 26.7996 122.831C26.663 122.189 26.6693 121.534 26.8185 120.866L29.3809 121.383C29.3011 121.697 29.2944 122.008 29.361 122.315C29.4205 122.611 29.5516 122.913 29.754 123.22C29.9844 123.57 30.2688 123.829 30.6071 123.998C30.9279 124.164 31.2765 124.234 31.653 124.209C32.0119 124.18 32.3691 124.046 32.7244 123.805C33.0796 123.565 33.3442 123.278 33.5182 122.946C33.6851 122.603 33.7562 122.241 33.7314 121.86C33.7066 121.479 33.5825 121.119 33.3591 120.78C33.1496 120.462 32.9124 120.217 32.6473 120.044C32.3648 119.868 32.0649 119.757 31.7477 119.712L32.2679 117.131C32.9511 117.251 33.5701 117.49 34.1247 117.85C34.6688 118.216 35.1468 118.712 35.5588 119.337Z" fill="white"/>
<path d="M30.798 110.39C31.1987 111.31 31.3723 112.214 31.3188 113.101C31.2487 113.981 30.969 114.774 30.4796 115.48C29.9902 116.185 29.3258 116.726 28.4864 117.101C27.647 117.476 26.8134 117.612 25.9855 117.509C25.1411 117.399 24.3795 117.085 23.7008 116.568C23.0221 116.05 22.4951 115.36 22.1198 114.498C21.7546 113.659 21.6108 112.84 21.6883 112.04C21.7658 111.24 22.0421 110.518 22.5173 109.874C22.9874 109.219 23.6307 108.709 24.4471 108.344C24.5966 108.277 24.7626 108.217 24.9452 108.163C25.1113 108.103 25.3137 108.047 25.5525 107.996L28.7574 115.31L26.9464 116.119L24.236 109.941L25.497 110.755C25.0191 110.983 24.6554 111.236 24.4058 111.514C24.1447 111.798 23.9945 112.115 23.9553 112.467C23.8994 112.812 23.9577 113.182 24.1302 113.579C24.3128 113.998 24.5703 114.321 24.9027 114.548C25.2185 114.769 25.587 114.89 26.008 114.91C26.424 114.919 26.8792 114.813 27.3736 114.592C27.8681 114.371 28.2555 114.094 28.5358 113.76C28.7996 113.419 28.9583 113.042 29.0117 112.629C29.0486 112.209 28.9682 111.771 28.7704 111.317C28.5878 110.898 28.354 110.55 28.0689 110.274C27.7723 110.003 27.4245 109.803 27.0255 109.675L27.8352 107.56C28.5007 107.764 29.0836 108.109 29.5837 108.595C30.0838 109.081 30.4886 109.68 30.798 110.39Z" fill="white"/>
<path d="M27.6516 101.025C27.7852 101.556 27.8503 102.097 27.8468 102.65C27.8403 103.191 27.7711 103.714 27.6394 104.221C27.4924 104.719 27.2934 105.165 27.0423 105.558L25.0294 104.364C25.2715 103.986 25.4326 103.57 25.5127 103.115C25.5806 102.664 25.554 102.198 25.4329 101.717C25.349 101.384 25.2366 101.144 25.0957 100.996C24.9517 100.836 24.7944 100.778 24.6239 100.822C24.4047 100.879 24.2683 101.032 24.2146 101.283C24.1457 101.524 24.1105 101.822 24.1092 102.177C24.0956 102.536 24.0807 102.914 24.0643 103.312C24.0479 103.711 23.9842 104.102 23.8732 104.485C23.7623 104.869 23.5627 105.209 23.2746 105.507C22.9743 105.808 22.5562 106.028 22.0204 106.167C21.448 106.314 20.9176 106.294 20.429 106.105C19.9282 105.919 19.4877 105.586 19.1075 105.106C18.7272 104.626 18.4454 104.022 18.2621 103.294C18.0695 102.53 18.0264 101.792 18.1327 101.081C18.2238 100.361 18.4738 99.7313 18.8827 99.192L20.8956 100.387C20.6382 100.755 20.4876 101.136 20.4438 101.528C20.3968 101.908 20.4153 102.265 20.4992 102.598C20.5799 102.919 20.6892 103.147 20.827 103.282C20.9527 103.42 21.1007 103.467 21.2712 103.423C21.4539 103.376 21.5736 103.234 21.6304 102.995C21.6872 102.757 21.7162 102.461 21.7176 102.106C21.7189 101.751 21.7339 101.372 21.7625 100.971C21.7911 100.569 21.8669 100.175 21.99 99.7883C22.1132 99.4017 22.3249 99.0578 22.6252 98.7568C22.9134 98.459 23.3375 98.2376 23.8977 98.0929C24.7623 97.8694 25.5342 98.0247 26.2134 98.5587C26.8895 99.0803 27.3689 99.9025 27.6516 101.025Z" fill="white"/>
<path d="M26.1132 92.1939C26.1686 92.7385 26.1546 93.284 26.0712 93.8303C25.9866 94.3639 25.8424 94.8717 25.6388 95.3538C25.4214 95.8245 25.16 96.2358 24.8547 96.5877L23.0363 95.1072C23.3304 94.7693 23.55 94.3816 23.695 93.944C23.8275 93.5078 23.8686 93.0427 23.8183 92.5488C23.7836 92.2068 23.7071 91.9524 23.5891 91.7855C23.4697 91.606 23.3226 91.5253 23.1475 91.5436C22.9225 91.5671 22.7654 91.6987 22.676 91.9385C22.5729 92.1668 22.495 92.4566 22.4423 92.8077C22.3771 93.1601 22.3076 93.5321 22.2337 93.9238C22.1599 94.3155 22.0403 94.6928 21.8751 95.0557C21.7099 95.4185 21.4632 95.7259 21.1351 95.9777C20.7944 96.2309 20.3491 96.3862 19.799 96.4436C19.2115 96.505 18.6897 96.4059 18.2337 96.1463C17.7653 95.888 17.3777 95.4933 17.071 94.9622C16.7642 94.431 16.5729 93.7918 16.4968 93.0446C16.4169 92.2593 16.481 91.523 16.689 90.8357C16.8832 90.137 17.2216 89.5513 17.7042 89.0785L19.5225 90.559C19.2146 90.8856 19.0106 91.2397 18.9104 91.6213C18.809 91.9903 18.7757 92.3458 18.8105 92.6877C18.844 93.017 18.9191 93.2588 19.0359 93.413C19.1401 93.5685 19.2798 93.6371 19.4548 93.6188C19.6423 93.5993 19.7814 93.4759 19.872 93.2489C19.9626 93.0218 20.0342 92.7327 20.0869 92.3816C20.1397 92.0305 20.2092 91.6585 20.2955 91.2655C20.3819 90.8725 20.5139 90.4939 20.6917 90.1297C20.8694 89.7656 21.1286 89.4569 21.4692 89.2037C21.7973 88.9519 22.2489 88.7959 22.824 88.7359C23.7116 88.6432 24.4527 88.9114 25.0473 89.5405C25.6406 90.1569 25.996 91.0414 26.1132 92.1939Z" fill="white"/>
<path d="M25.5501 85.2983L15.6045 84.8992C14.8636 84.8695 14.2045 84.6774 13.6273 84.3229C13.0379 83.9553 12.5857 83.4593 12.2705 82.835C11.9428 82.2102 11.7953 81.478 11.8281 80.6383C11.853 80.0022 11.9814 79.453 12.2132 78.9909C12.4331 78.5155 12.732 78.107 13.1101 77.7654L14.8468 79.67C14.7162 79.7921 14.6163 79.9347 14.5471 80.0975C14.4658 80.2472 14.4209 80.4302 14.4124 80.6464C14.397 81.0408 14.4979 81.3571 14.7149 81.5951C14.932 81.8332 15.2352 81.9601 15.6245 81.9757L25.6643 82.3785L25.5501 85.2983ZM18.7646 87.0712L16.3158 86.9729L16.6142 79.3395L19.063 79.4378L18.7646 87.0712Z" fill="white"/>
<path d="M26.9321 73.9762C26.7684 74.813 26.4566 75.5227 25.9967 76.1054C25.5269 76.673 24.9608 77.0785 24.2982 77.3219C23.6233 77.5628 22.8975 77.6053 22.1209 77.4494L16.9062 76.4023L17.467 73.536L22.6446 74.5756C22.9528 74.6375 23.2276 74.6408 23.469 74.5854C23.7129 74.5175 23.9173 74.3898 24.0821 74.2023C24.2469 74.0147 24.3586 73.771 24.4172 73.4713C24.5003 73.0467 24.4368 72.6835 24.2268 72.3817C24.0045 72.0774 23.6591 71.8783 23.1906 71.7842L18.013 70.7446L18.5737 67.8783L23.7698 68.9216C24.5588 69.08 25.2199 69.401 25.7531 69.8845C26.274 70.3655 26.6447 70.9591 26.8653 71.6654C27.0735 72.3692 27.0958 73.1395 26.9321 73.9762Z" fill="white"/>
<path d="M28.3163 67.5492L15.3477 63.1191L16.2692 60.3502L29.2378 64.7803L28.3163 67.5492Z" fill="white"/>
<path d="M31.9114 58.2073L20.4844 51.2949L22.0016 48.7205L33.4286 55.6328L31.9114 58.2073ZM28.5877 53.5275L26.4026 52.2057L29.814 46.4172L31.9991 47.739L28.5877 53.5275ZM23.8291 50.6489L21.6441 49.3272L25.2101 43.2763L27.3952 44.5981L23.8291 50.6489Z" fill="white"/>
<path d="M40.8166 45.5084C40.2604 46.1489 39.6391 46.6041 38.9526 46.8741C38.2651 47.1261 37.5745 47.1889 36.8808 47.0624C36.1778 46.9276 35.529 46.5952 34.9346 46.0654L30.9434 42.5078L32.8485 40.314L36.8114 43.8463C37.0473 44.0565 37.2834 44.1991 37.5196 44.274C37.7642 44.3394 38.0042 44.3328 38.2397 44.2544C38.4751 44.176 38.6925 44.0221 38.8917 43.7927C39.174 43.4677 39.299 43.1213 39.2669 42.7535C39.2254 42.3773 39.0253 42.0294 38.6668 41.7098L34.7039 38.1775L36.609 35.9836L40.5861 39.5285C41.1899 40.0668 41.6027 40.6806 41.8243 41.3699C42.0364 42.0508 42.0629 42.7528 41.9038 43.4758C41.7352 44.1904 41.3728 44.8679 40.8166 45.5084Z" fill="white"/>
<path d="M46.1789 39.7547L37.8518 29.7058L40.0608 27.827L48.3879 37.8759L46.1789 39.7547ZM40.2757 35.8982L38.7 33.9967L44.0853 29.4163L45.661 31.3178L40.2757 35.8982Z" fill="white"/>
<path d="M54.8117 33.5997C54.0926 34.0434 53.3657 34.2907 52.631 34.3415C51.9006 34.3747 51.2228 34.2264 50.5978 33.8965C49.9662 33.5557 49.4445 33.0428 49.0327 32.3577L46.2676 27.7578L48.7309 26.2379L51.4764 30.8052C51.6399 31.077 51.8233 31.2843 52.0269 31.4271C52.2411 31.5632 52.4722 31.6294 52.72 31.6255C52.9679 31.6217 53.2206 31.5403 53.4782 31.3813C53.8431 31.1562 54.0643 30.8632 54.1417 30.5024C54.2126 30.1307 54.1238 29.7382 53.8754 29.325L51.1299 24.7577L53.5932 23.2378L56.3485 27.8214C56.7669 28.5174 56.9806 29.2278 56.9896 29.9527C56.9921 30.6667 56.8112 31.3449 56.4468 31.9871C56.0759 32.6185 55.5309 33.156 54.8117 33.5997Z" fill="white"/>
<path d="M60.4414 30.2149L56.945 21.6355L59.6109 20.5204L63.1073 29.0997L60.4414 30.2149ZM61.1865 24.3864L59.7116 23.9702C59.5246 22.8775 59.5798 21.9453 59.8771 21.1735C60.1744 20.4017 60.7877 19.8215 61.717 19.4327C62.1236 19.2627 62.5043 19.1792 62.859 19.1823C63.2206 19.1688 63.5704 19.2429 63.9082 19.4047L63.1499 22.098C62.981 22.0171 62.795 21.9779 62.592 21.9801C62.389 21.9824 62.1771 22.0297 61.9564 22.122C61.515 22.3067 61.2183 22.5961 61.0662 22.9903C60.921 23.3679 60.961 23.8332 61.1865 24.3864Z" fill="white"/>
<path d="M72.4835 26.2789C71.5174 26.5107 70.6089 26.5193 69.758 26.3048C68.9165 26.0749 68.1977 25.652 67.6017 25.0361C67.0057 24.4202 66.602 23.66 66.3906 22.7556C66.1791 21.8512 66.1988 20.996 66.4495 20.19C66.7095 19.3687 67.1525 18.6671 67.7785 18.0851C68.4044 17.5031 69.1699 17.1035 70.0748 16.8864C70.9553 16.6752 71.7768 16.6809 72.5392 16.9036C73.3015 17.1263 73.9519 17.5329 74.4903 18.1233C75.041 18.7109 75.4191 19.4445 75.6247 20.3241C75.6624 20.4852 75.6907 20.6616 75.7097 20.8533C75.738 21.0297 75.7552 21.2414 75.7613 21.4886L68.0796 23.3513L67.6235 21.3999L74.1128 19.8233L73.0933 20.9315C72.9594 20.4141 72.78 20.0057 72.555 19.7064C72.3272 19.3947 72.0463 19.1873 71.7122 19.0843C71.3875 18.9659 71.0172 18.9566 70.6015 19.0564C70.1612 19.162 69.8006 19.3598 69.5197 19.6496C69.248 19.9241 69.0639 20.2692 68.9674 20.685C68.8831 21.0977 68.9032 21.5705 69.0277 22.1032C69.1523 22.636 69.3511 23.0724 69.6243 23.4125C69.9069 23.7372 70.244 23.9638 70.6357 24.0923C71.0366 24.2054 71.4756 24.2048 71.9525 24.0903C72.3928 23.9847 72.7729 23.815 73.0928 23.5812C73.4097 23.3351 73.6666 23.0249 73.8632 22.6506L75.769 23.842C75.4504 24.4679 75.0096 24.9859 74.4468 25.3957C73.8839 25.8055 73.2295 26.0999 72.4835 26.2789Z" fill="white"/>
<path d="M80.5486 24.9537C80.0605 24.9986 79.6384 24.8647 79.2824 24.5522C78.9263 24.2397 78.7267 23.8426 78.6836 23.3607C78.6383 22.8535 78.7635 22.4201 79.0595 22.0605C79.3543 21.6883 79.7457 21.4798 80.2338 21.4349C80.7345 21.389 81.1566 21.5228 81.5001 21.8364C81.855 22.1362 82.0552 22.5398 82.1005 23.047C82.1436 23.5288 82.0178 23.9559 81.723 24.3281C81.4407 24.6992 81.0493 24.9078 80.5486 24.9537Z" fill="white"/>
<circle cx="85.9629" cy="85.002" r="46.75" fill="#DCFD7D"/>
<path fill-rule="evenodd" clip-rule="evenodd" d="M98.7024 98.7016C98.7024 91.6606 93.0025 85.9607 85.9614 85.9607C83.6821 85.9607 81.5214 86.5601 79.6824 87.6202C78.0025 86.5195 76.6207 84.9819 75.7232 83.1801C78.6629 81.2395 82.1818 80.1016 85.9648 80.1016C96.2436 80.1016 104.565 88.4431 104.565 98.7016C104.565 100.822 104.226 102.861 103.566 104.761H97.1851C98.1605 102.962 98.7024 100.903 98.7024 98.7016ZM74.1213 94.0211C73.5422 95.4808 73.2204 97.0625 73.2204 98.7016C73.2204 100.903 73.7792 102.962 74.7614 104.761H68.3807C67.7203 102.861 67.3613 100.822 67.3613 98.7016C67.3613 95.3826 68.2419 92.2803 69.7625 89.5811C70.9615 91.2813 72.4415 92.7816 74.1213 94.0211Z" fill="black"/>
<path fill-rule="evenodd" clip-rule="evenodd" d="M85.9611 65.2441C88.3826 65.2441 90.3605 67.2051 90.3605 69.6232C90.3605 72.0448 88.3793 74.0023 85.9611 74.0023C83.5396 74.0023 81.582 72.0414 81.582 69.6232C81.582 67.2017 83.5396 65.2441 85.9611 65.2441Z" fill="#6A52E0"/>
<path fill-rule="evenodd" clip-rule="evenodd" d="M98.7024 78.0643C98.7024 79.7034 98.401 81.2851 97.8218 82.7448C99.5017 83.9843 100.961 85.4846 102.181 87.1848C103.701 84.4855 104.561 81.3833 104.561 78.0643C104.561 75.9441 104.223 73.9053 103.562 72.0053H97.1817C98.1605 73.8037 98.7024 75.8629 98.7024 78.0643ZM92.2608 89.1423C90.4015 90.2024 88.261 90.8019 85.9614 90.8019C78.9407 90.8019 73.2204 85.1019 73.2204 78.0609C73.2204 75.8595 73.7792 73.8003 74.7614 72.002H68.3807C67.7203 73.9019 67.3613 75.9408 67.3613 78.0609C67.3613 88.3397 75.7029 96.6609 85.9614 96.6609C89.7614 96.6609 93.2802 95.5196 96.2199 93.5824C95.3021 91.784 93.9406 90.243 92.2608 89.1423Z" fill="#6A52E0"/>
</svg>
